<?xml version="1.0" encoding="utf-8"?>
<!-- Generator: Adobe Illustrator 27.5.0, SVG Export Plug-In . SVG Version: 6.00 Build 0)  -->
<svg version="1.1" xmlns="http://www.w3.org/2000/svg" xmlns:xlink="http://www.w3.org/1999/xlink" x="0px" y="0px"
	 viewBox="0 0 750 500" style="enable-background:new 0 0 750 500;" xml:space="preserve">
<g id="Background_Complete">
	<g>
		<g>
			<path style="fill:#EBEBEB;" d="M562.659,417.745c2.756-1.156,4.716-3.998,4.732-7.347c0.018-4.387-3.302-7.959-7.416-7.978
				c-4.112-0.019-7.462,3.522-7.48,7.909c-0.014,3.38,1.96,6.256,4.746,7.416c-11.462,1.727-10.942,14.184-10.942,14.184
				l27.104,0.125C573.403,432.054,574.021,419.461,562.659,417.745z"/>
		</g>
	</g>
	<g>
		<g>
			<path style="fill:#EBEBEB;" d="M82.238,135.863c2.068-0.868,3.539-3,3.551-5.513c0.013-3.292-2.478-5.972-5.565-5.987
				c-3.086-0.014-5.599,2.643-5.613,5.935c-0.01,2.536,1.471,4.694,3.561,5.565c-8.601,1.296-8.211,10.643-8.211,10.643
				l20.338,0.094C90.3,146.601,90.764,137.151,82.238,135.863z"/>
		</g>
	</g>
	<g>
		<path style="fill:#F5F5F5;" d="M565.573,103.578c0.306,13.712-10.561,25.077-24.274,25.383
			c-13.712,0.305-25.077-10.562-25.383-24.274c-0.306-13.712,10.562-25.077,24.274-25.383
			C553.903,78.997,565.267,89.866,565.573,103.578z"/>
		<path style="fill:#E0E0E0;" d="M535.501,97.505c-0.916-1.201-2.674-1.233-3.834-0.353c-1.16,0.881-1.694,1.913-1.901,3.473
			c-0.279-1.549-0.949-2.555-2.156-3.383c-1.207-0.826-2.974-0.716-3.844,0.524c-0.51,0.727-0.648,1.722-0.507,2.635
			c0.141,0.913,0.421,1.857,0.997,2.527c2.051,2.384,3.149,2.79,5.75,4.458c2.506-1.782,3.312-2.231,5.239-4.704
			c0.541-0.695,0.778-1.65,0.877-2.57C536.22,99.195,536.04,98.208,535.501,97.505z"/>
		<path style="fill:#E0E0E0;" d="M557.427,97.014c-0.917-1.199-2.674-1.231-3.834-0.351c-1.161,0.879-1.694,1.912-1.901,3.471
			c-0.278-1.548-0.948-2.553-2.155-3.381c-1.208-0.828-2.974-0.716-3.844,0.524c-0.51,0.727-0.648,1.72-0.507,2.633
			c0.14,0.913,0.421,1.859,0.997,2.527c2.05,2.384,3.149,2.792,5.75,4.459c2.505-1.781,3.312-2.231,5.239-4.703
			c0.541-0.694,0.777-1.65,0.876-2.57C558.146,98.706,557.966,97.718,557.427,97.014z"/>
		<path style="fill:#FFFFFF;" d="M549.099,109.78c-0.295,4.07-4.051,7.582-8.131,7.605c-4.079,0.022-7.874-3.449-8.213-7.515
			L549.099,109.78z"/>
	</g>
	<g>
		
			<ellipse transform="matrix(0.1589 -0.9873 0.9873 0.1589 178.2767 964.6864)" style="fill:#F5F5F5;" cx="655.333" cy="377.709" rx="25.434" ry="25.434"/>
		<path style="fill:#E0E0E0;" d="M646.894,370.412c0.965-0.059,1.818,1.021,1.903,2.415c0.086,1.393-0.627,2.57-1.592,2.63
			c-0.966,0.06-1.818-1.021-1.904-2.415C645.215,371.649,645.929,370.471,646.894,370.412z"/>
		<g>
			<path style="fill:#E0E0E0;" d="M649.264,364.02c-0.058,0.365-2.137,0.254-4.459,1.082c-2.34,0.783-3.906,2.153-4.177,1.901
				c-0.28-0.19,1.069-2.189,3.76-3.107C647.07,362.957,649.366,363.698,649.264,364.02z"/>
		</g>
		<g>
			<path style="fill:#E0E0E0;" d="M667.701,374.382c-0.273,0.228-1.64-1.246-3.832-1.469c-2.191-0.249-3.839,0.899-4.057,0.62
				c-0.111-0.123,0.157-0.614,0.885-1.109c0.713-0.491,1.932-0.927,3.308-0.78c1.376,0.149,2.474,0.835,3.067,1.467
				C667.679,373.749,667.834,374.287,667.701,374.382z"/>
		</g>
		<g>
			<path style="fill:#E0E0E0;" d="M669.885,370.134c-0.197,0.316-2.259-0.767-5.01-0.849c-2.751-0.14-4.892,0.776-5.063,0.445
				c-0.213-0.264,1.956-1.861,5.114-1.72C668.083,368.122,670.118,369.889,669.885,370.134z"/>
		</g>
		<g>
			<path style="fill:#E0E0E0;" d="M668.086,377.204c0.113-0.015,0.143,2.106-1.594,4.888c-1.641,2.71-5.468,5.996-10.62,6.203
				c-5.157,0.117-9.183-2.923-10.989-5.527c-1.909-2.668-2.012-4.786-1.898-4.778c0.225-0.077,0.65,1.884,2.609,4.223
				c1.866,2.301,5.64,4.918,10.238,4.806c4.595-0.178,8.197-3.024,9.916-5.439C667.555,379.124,667.857,377.14,668.086,377.204z"/>
		</g>
	</g>
	<g>
		<path style="fill:#F5F5F5;" d="M86.058,228.533c0.287,13.939-10.779,25.471-24.718,25.759
			c-13.939,0.287-25.472-10.779-25.759-24.718c-0.288-13.939,10.78-25.472,24.718-25.759
			C74.238,203.527,85.771,214.595,86.058,228.533z"/>
		<g>
			<path style="fill:#E0E0E0;" d="M52.111,222.693c0.957-0.079,1.824,0.977,1.938,2.358c0.113,1.381-0.569,2.564-1.526,2.643
				c-0.957,0.079-1.825-0.977-1.938-2.358C50.471,223.956,51.154,222.772,52.111,222.693z"/>
			<g>
				<path style="fill:#E0E0E0;" d="M54.331,216.302c-0.018,0.218-2.132,0.017-4.496,0.912c-2.38,0.855-3.857,2.38-4.012,2.225
					c-0.163-0.091,1.183-1.971,3.761-2.906C52.151,215.572,54.396,216.127,54.331,216.302z"/>
			</g>
		</g>
		<g>
			<path style="fill:#E0E0E0;" d="M68.16,222.363c-0.959-0.039-1.782,1.051-1.84,2.435c-0.057,1.384,0.675,2.539,1.634,2.578
				c0.959,0.039,1.783-1.051,1.84-2.436C69.851,223.556,69.119,222.402,68.16,222.363z"/>
			<g>
				<path style="fill:#E0E0E0;" d="M65.678,216.068c-0.072-0.172,2.148-0.82,4.753,0.036c2.615,0.828,4.037,2.651,3.878,2.748
					c-0.149,0.16-1.687-1.302-4.1-2.058C67.809,215.998,65.706,216.285,65.678,216.068z"/>
			</g>
		</g>
		<g>
			<path style="fill:#E0E0E0;" d="M73.274,228.796c0.039,0.005,0.019,0.494-0.176,1.352c-0.19,0.859-0.633,2.077-1.466,3.426
				c-0.828,1.349-2.107,2.794-3.849,3.984c-1.731,1.19-3.965,2.076-6.416,2.225c-2.454,0.107-4.769-0.542-6.614-1.546
				c-1.856-1.003-3.279-2.307-4.242-3.564c-0.969-1.256-1.536-2.42-1.814-3.255c-0.283-0.834-0.353-1.318-0.316-1.326
				c0.15-0.065,0.545,1.906,2.526,4.257c0.975,1.168,2.372,2.373,4.156,3.296c1.774,0.925,3.964,1.512,6.265,1.414
				c2.298-0.141,4.414-0.952,6.082-2.057c1.678-1.102,2.942-2.446,3.791-3.709C72.93,230.75,73.118,228.748,73.274,228.796z"/>
		</g>
	</g>
	<path style="fill:#E0E0E0;" d="M278.523,262.825c-1.245-1.49-3.504-1.434-4.945-0.239c-1.441,1.195-2.069,2.551-2.249,4.566
		c-0.444-1.974-1.36-3.229-2.957-4.224c-1.597-0.996-3.86-0.755-4.909,0.886c-0.615,0.962-0.736,2.247-0.505,3.413
		c0.231,1.165,0.645,2.363,1.421,3.19c2.767,2.948,4.2,3.41,7.634,5.407c3.119-2.428,4.13-3.05,6.468-6.333
		c0.656-0.922,0.907-2.163,0.983-3.349C279.54,264.957,279.253,263.699,278.523,262.825z"/>
	<path style="fill:#E0E0E0;" d="M643.318,69.433c-1.245-1.49-3.504-1.434-4.945-0.239s-2.069,2.551-2.248,4.566
		c-0.444-1.974-1.36-3.229-2.957-4.224c-1.597-0.996-3.86-0.755-4.909,0.886c-0.615,0.962-0.736,2.247-0.505,3.413
		c0.231,1.165,0.644,2.363,1.421,3.19c2.767,2.948,4.2,3.41,7.634,5.407c3.119-2.428,4.13-3.05,6.468-6.334
		c0.656-0.922,0.907-2.163,0.983-3.349C644.336,71.565,644.048,70.307,643.318,69.433z"/>
	<path style="fill:#EBEBEB;" d="M544.712,348.6c-1.245-1.49-3.504-1.434-4.945-0.239c-1.441,1.195-2.069,2.551-2.249,4.566
		c-0.444-1.974-1.36-3.229-2.957-4.224c-1.597-0.996-3.86-0.755-4.909,0.886c-0.615,0.962-0.736,2.247-0.505,3.413
		c0.231,1.165,0.645,2.363,1.421,3.191c2.767,2.948,4.2,3.41,7.634,5.407c3.119-2.428,4.13-3.05,6.468-6.333
		c0.656-0.922,0.907-2.163,0.983-3.349C545.729,350.732,545.442,349.474,544.712,348.6z"/>
</g>
<g id="Background_Simple" style="display:none;">
	<path style="display:inline;fill:#F5F5F5;" d="M587.328,107.532l-2.744-4.465c-22.032-35.851-61.706-57.574-103.731-55.43
		c-5.906,0.301-11.789,1.056-17.587,2.281c-38.655,8.17-72.289,37.035-86.23,74.002c-8.199,21.741-10.49,46.773-26.049,64.03
		c-20.25,22.459-54.628,23.164-84.854,22.234c-30.226-0.93-64.627-0.137-84.778,22.411c-12.62,14.121-16.631,34.202-15.613,53.114
		c2.694,50.068,38.025,94.836,82.958,117.088c44.932,22.252,97.835,24.245,147.011,14.456
		c68.889-13.713,134.402-51.371,173.781-109.536C608.868,249.553,618.834,170.31,587.328,107.532z"/>
</g>
<g id="Character_3">
	<g>
		<path style="fill:#E0E0E0;" d="M615.159,170.591c-25.29,0-47.656,12.456-61.345,31.554l-26.811,3.798l15.042,21.427
			c-1.52,5.971-2.332,12.224-2.332,18.668c0,41.668,33.779,75.446,75.447,75.446c41.668,0,75.446-33.779,75.446-75.446
			S656.827,170.591,615.159,170.591z"/>
		<g>
			<g>
				<g>
					<g>
						<path style="fill:#263238;" d="M601.307,139.231c11.058-14.561,22.715-12.504,30.805-8.986
							c8.09,3.519,13.522,12.384,12.984,21.189c-0.142,2.326-0.639,4.774,0.307,6.903c1.522,3.425,5.948,4.389,8.511,7.123
							c3.504,3.738,2.728,9.656,1.544,14.642c-1.184,4.985-2.43,10.676,0.502,14.879c2.685,3.849,7.805,4.882,12.027,6.931
							c5.579,2.708,10.064,7.762,11.684,13.748c1.619,5.986,0.193,12.804-4,17.373c-4.105,4.471-10.268,6.454-16.273,7.339
							c-17.474,2.574-35.982-3.064-49.053-14.943c-13.071-11.879-20.449-29.765-19.554-47.404"/>
					</g>
				</g>
				<g>
					<g>
						<g>
							<path style="fill:#455A64;" d="M669.356,234.527c-0.033-0.035,0.381-0.36,1.002-1.122c0.619-0.753,1.46-1.972,1.967-3.765
								c0.506-1.782,0.619-4.111,0.059-6.695c-0.518-2.583-1.846-5.383-4.109-7.815c-1.128-1.211-2.464-2.344-4-3.298
								c-1.526-0.971-3.271-1.715-5.094-2.464c-1.82-0.754-3.746-1.511-5.572-2.639c-1.827-1.127-3.473-2.657-4.818-4.472
								c-2.73-3.626-4.163-8.372-4.274-13.254c-0.065-2.444,0.167-4.936,0.629-7.406c0.451-2.472,1.077-4.93,1.555-7.432
								c0.327-1.769,0.633-3.562,0.612-5.285c-0.043-1.737-0.518-3.412-1.163-5.012c-0.641-1.607-1.396-3.165-2.001-4.789
								c-0.587-1.663-0.846-3.352-1.042-5.012c-0.202-1.669-0.201-3.316-0.389-4.879c-0.163-1.58-0.485-3.112-0.889-4.587
								c-0.819-2.936-2.062-5.688-3.705-7.905l-0.02-0.027l-0.004-0.006c-2.765-4.373-7.321-6.794-11.424-7.367
								c-4.165-0.618-7.842,0.626-10.382,2.171c-2.588,1.557-4.157,3.411-5.083,4.719c-0.92,1.328-1.261,2.132-1.31,2.107
								c0,0,0.273-0.834,1.154-2.213c0.887-1.357,2.436-3.282,5.052-4.919c2.562-1.621,6.328-2.958,10.639-2.364
								c4.24,0.551,8.967,2.999,11.879,7.538l-0.023-0.032c1.754,2.336,3.007,5.105,3.869,8.118
								c0.421,1.507,0.756,3.074,0.929,4.688c0.2,1.625,0.203,3.255,0.406,4.879c0.195,1.626,0.461,3.288,1.015,4.845
								c0.589,1.572,1.345,3.128,2.003,4.767c0.662,1.633,1.174,3.413,1.22,5.26c0.021,1.854-0.292,3.64-0.622,5.442
								c-0.484,2.532-1.111,4.986-1.558,7.426c-0.457,2.435-0.686,4.867-0.628,7.256c0.101,4.768,1.479,9.36,4.099,12.871
								c1.292,1.757,2.866,3.235,4.617,4.327c1.755,1.097,3.647,1.858,5.465,2.625c1.82,0.763,3.598,1.533,5.163,2.547
								c1.571,0.994,2.934,2.17,4.081,3.426c2.301,2.518,3.639,5.431,4.128,8.082c0.534,2.648,0.377,5.04-0.186,6.858
								c-0.564,1.829-1.465,3.048-2.128,3.781C669.802,234.243,669.356,234.527,669.356,234.527z"/>
						</g>
					</g>
				</g>
			</g>
			<g>
				<g>
					<g>
						<path style="fill:#FAFAFA;" d="M628.913,217.431c-0.095-0.108,1.041-1.253,2.536-2.557c1.496-1.304,2.784-2.272,2.879-2.164
							s-1.041,1.253-2.537,2.557C630.297,216.571,629.008,217.54,628.913,217.431z"/>
					</g>
				</g>
			</g>
			<g>
				<g>
					<g>
						<path style="fill:#E8505B;" d="M625.29,208.789l-33.337,4.06c0,0-26.825,4.876-32.217,24.967
							c-3.724,13.874-11.432,39.716-15.845,54.38c-1.904,6.326,0.961,13.108,6.823,16.156h0c7.069,3.675,15.773,0.59,18.948-6.718
							l14.58-33.551c0,0,5.138,11.719,4.843,17.262c-0.296,5.543-11.873,25.913-11.873,25.913l0,0
							c24.624,14.12,49.646,12.338,69.109,3.509l0,0l-0.929-53.025c0,0,9.163,47.311,27.72,43.708
							c15.557-3.02,5.313-33.342,0-44.938c-6.776-14.789-15.618-35.89-21.185-40.977C637.007,205.9,625.29,208.789,625.29,208.789z"
							/>
					</g>
				</g>
				<g style="opacity:0.2;">
					<g>
						<g>
							<path d="M594.51,215.524c-2.017,3.145-4.793,5.721-7.598,8.189c-1.891,1.664-3.859,3.326-6.208,4.234
								c-2.349,0.908-5.183,0.94-7.228-0.531c-2.044-1.471-2.847-4.674-1.256-6.625c1.052-1.29,2.786-1.76,4.402-2.159
								c5.399-1.331,10.797-2.662,16.196-3.993"/>
						</g>
					</g>
				</g>
				<g>
					<g>
						<g>
							<path style="fill:#263238;" d="M551.999,277.319c-0.094-0.085,1.745-1.679,4.588-2.394c2.837-0.742,5.216-0.23,5.174-0.11
								c-0.011,0.163-2.326-0.101-5.045,0.614C553.99,276.111,552.087,277.457,551.999,277.319z"/>
						</g>
					</g>
				</g>
				<g>
					<g>
						<g>
							<path style="fill:#263238;" d="M556.4,272.722c-0.073-0.111,1.483-0.901,3.55-0.692c2.069,0.188,3.446,1.26,3.354,1.355
								c-0.077,0.138-1.479-0.667-3.404-0.837C557.979,272.349,556.449,272.872,556.4,272.722z"/>
						</g>
					</g>
				</g>
				<g style="opacity:0.2;">
					<g>
						<g>
							<path d="M563.022,275.198c-2.895-1.441-6.562-1.187-9.231,0.64c-0.559,0.382-1.264,0.845-1.848,0.502
								c-0.559-0.329-0.527-1.174-0.217-1.744c0.738-1.359,2.426-1.873,3.965-2.033c2.773-0.289,5.621,0.168,8.164,1.311"/>
						</g>
					</g>
				</g>
				<g style="opacity:0.2;">
					<g>
						<g>
							<path d="M617.209,252.786c-1.755,3.536-6.805,5.75-9.169,9.606c-1.996,3.256-2.74,7.097-3.942,10.722
								c-3.312,9.989-10.431,18.664-19.582,23.862c1.823-3.464,3.308-7.077,4.432-10.851c0.494-3.46-0.98-6.721-0.98-6.721
								c1.145-3.518,6.155-8.369,8.45-11.271c2.75-3.476,5.524-6.977,8.911-9.837C608.716,255.438,612.799,253.23,617.209,252.786"
								/>
						</g>
					</g>
				</g>
				<g>
					<g>
						<g>
							<path style="fill:#FAFAFA;" d="M631.393,289.879c-0.125-0.072,1.093-2.417,2.719-5.238c1.627-2.822,3.046-5.05,3.171-4.978
								c0.124,0.072-1.093,2.417-2.72,5.238C632.937,287.722,631.517,289.951,631.393,289.879z"/>
						</g>
					</g>
				</g>
				<g>
					<g>
						<g>
							<path style="fill:#263238;" d="M658.428,275.755c0.072,0.006,0.04,1.098-0.064,2.856c-0.09,1.757-0.289,4.184-0.178,6.847
								c0.19,5.37,2.269,9.34,2.067,9.4c-0.033,0.015-0.172-0.221-0.397-0.662c-0.234-0.437-0.518-1.096-0.837-1.924
								c-0.626-1.657-1.24-4.073-1.353-6.79c-0.112-2.714,0.148-5.15,0.332-6.902C658.196,276.828,658.357,275.749,658.428,275.755z
								"/>
						</g>
					</g>
				</g>
				<g>
					<g>
						<g>
							<path style="fill:#FAFAFA;" d="M613.219,298.28c0.098-0.095,1.818,1.561,3.547,3.933c1.736,2.368,2.792,4.509,2.672,4.573
								c-0.131,0.075-1.377-1.928-3.092-4.266C614.638,300.177,613.108,298.383,613.219,298.28z"/>
						</g>
					</g>
				</g>
				<g>
					<g>
						<g>
							<path style="fill:#FAFAFA;" d="M630.198,302.155c0.064-0.129,1.72,0.565,3.699,1.549c1.979,0.985,3.531,1.887,3.467,2.016
								c-0.064,0.129-1.72-0.565-3.699-1.55C631.686,303.186,630.133,302.284,630.198,302.155z"/>
						</g>
					</g>
				</g>
				<g>
					<g>
						<g>
							<path style="fill:#FAFAFA;" d="M619.031,286.108c-0.087,0.106-1.532-0.969-2.979-2.642c-1.453-1.668-2.314-3.25-2.197-3.321
								c0.126-0.082,1.166,1.346,2.59,2.979C617.862,284.764,619.129,285.995,619.031,286.108z"/>
						</g>
					</g>
				</g>
				<g>
					<g>
						<g>
							<path style="fill:#FAFAFA;" d="M598.331,299.81c-0.09-0.123,1.408-1.328,3.06-3.01c1.66-1.675,2.844-3.189,2.968-3.101
								c0.114,0.074-0.902,1.755-2.597,3.466C600.073,298.884,598.406,299.922,598.331,299.81z"/>
						</g>
					</g>
				</g>
				<g>
					<g>
						<g>
							<path style="fill:#FAFAFA;" d="M587.405,305.405c0.097-0.106,1.434,0.951,2.986,2.363c1.553,1.412,2.733,2.642,2.636,2.748
								c-0.097,0.106-1.434-0.951-2.987-2.363C588.489,306.741,587.308,305.511,587.405,305.405z"/>
						</g>
					</g>
				</g>
				<g>
					<g>
						<g>
							<path style="fill:#FAFAFA;" d="M608.111,267.049c-0.075-0.122,1.6-1.29,3.742-2.608c2.142-1.318,3.94-2.287,4.015-2.164
								c0.075,0.122-1.6,1.29-3.742,2.608C609.984,266.203,608.186,267.172,608.111,267.049z"/>
						</g>
					</g>
				</g>
				<g>
					<g>
						<g>
							<path style="fill:#FAFAFA;" d="M625.842,260.829c0.13-0.062,1.091,1.663,2.147,3.853c1.056,2.191,1.808,4.017,1.678,4.08
								c-0.13,0.062-1.091-1.662-2.147-3.853C626.464,262.718,625.712,260.891,625.842,260.829z"/>
						</g>
					</g>
				</g>
				<g>
					<g>
						<g>
							<path style="fill:#FAFAFA;" d="M637.992,258.191c-0.123-0.074,0.728-1.727,1.901-3.691c1.174-1.965,2.225-3.498,2.348-3.424
								c0.123,0.074-0.728,1.726-1.901,3.691C639.167,256.732,638.116,258.265,637.992,258.191z"/>
						</g>
					</g>
				</g>
				<g>
					<g>
						<g>
							<path style="fill:#FAFAFA;" d="M623.819,245.904c0.067-0.139,1.746,0.6,3.928,1.107c2.179,0.523,4.011,0.612,4.009,0.767
								c0.008,0.133-1.879,0.278-4.129-0.26C625.375,246.993,623.752,246.019,623.819,245.904z"/>
						</g>
					</g>
				</g>
				<g>
					<g>
						<g>
							<path style="fill:#FAFAFA;" d="M632.175,232.016c-0.143,0.01-0.378-1.675-0.525-3.762c-0.146-2.089-0.149-3.789-0.005-3.799
								c0.143-0.01,0.378,1.674,0.525,3.763C632.317,230.305,632.319,232.006,632.175,232.016z"/>
						</g>
					</g>
				</g>
				<g>
					<g>
						<g>
							<path style="fill:#FAFAFA;" d="M650.815,259.846c-0.134-0.051,0.471-1.962,1.351-4.268c0.881-2.306,1.703-4.134,1.838-4.082
								c0.134,0.051-0.47,1.962-1.351,4.268C651.772,258.069,650.949,259.897,650.815,259.846z"/>
						</g>
					</g>
				</g>
				<g>
					<g>
						<g>
							<path style="fill:#FAFAFA;" d="M653.488,269.97c0.113-0.074,1.174,1.448,1.934,3.589c0.77,2.138,0.914,3.987,0.779,4.002
								c-0.151,0.024-0.519-1.745-1.27-3.827C654.193,271.649,653.357,270.047,653.488,269.97z"/>
						</g>
					</g>
				</g>
				<g>
					<g>
						<g>
							<path style="fill:#FAFAFA;" d="M591.909,233.132c0.075-0.122,1.619,0.691,3.448,1.818c1.829,1.127,3.25,2.139,3.175,2.261
								c-0.075,0.122-1.619-0.691-3.448-1.818C593.255,234.267,591.833,233.254,591.909,233.132z"/>
						</g>
					</g>
				</g>
				<g>
					<g>
						<g>
							<path style="fill:#FAFAFA;" d="M582.238,249.518c-0.104-0.115,1.283-1.45,2.643-3.368c1.374-1.909,2.187-3.653,2.329-3.592
								c0.126,0.043-0.491,1.927-1.905,3.895C583.902,248.428,582.32,249.623,582.238,249.518z"/>
						</g>
					</g>
				</g>
				<g>
					<g>
						<g>
							<path style="fill:#FAFAFA;" d="M567.843,250.209c0.085-0.11,1.755,1.052,3.556,2.788c1.806,1.732,3.033,3.355,2.926,3.444
								c-0.113,0.097-1.502-1.357-3.287-3.069C569.258,251.657,567.751,250.326,567.843,250.209z"/>
						</g>
					</g>
				</g>
				<g>
					<g>
						<g>
							<path style="fill:#FAFAFA;" d="M571.296,236.189c-0.1-0.103,1.471-1.785,3.51-3.755c2.039-1.971,3.772-3.484,3.872-3.381
								c0.1,0.103-1.471,1.784-3.51,3.755C573.13,234.779,571.396,236.292,571.296,236.189z"/>
						</g>
					</g>
				</g>
				<g>
					<g>
						<g>
							<path style="fill:#FAFAFA;" d="M562.39,262.83c-0.137,0.043-0.833-1.79-1.554-4.094c-0.721-2.305-1.195-4.207-1.057-4.25
								c0.137-0.043,0.833,1.79,1.554,4.094C562.054,260.884,562.528,262.787,562.39,262.83z"/>
						</g>
					</g>
				</g>
				<g>
					<g>
						<g>
							<path style="fill:#FAFAFA;" d="M569.279,271.39c-0.143-0.013-0.065-2.115,0.174-4.694c0.239-2.58,0.549-4.66,0.692-4.646
								c0.143,0.013,0.065,2.115-0.174,4.694C569.732,269.323,569.422,271.404,569.279,271.39z"/>
						</g>
					</g>
				</g>
			</g>
			<g>
				<g>
					<g>
						<path style="fill:#B78876;" d="M619.092,232.005c-2.13-1.512-4.79-2.084-7.356-1.584c-2.419,0.471-4.56,1.859-5.976,3.87
							l-8.697,12.361l-47.166,37.615c-7.328,5.844-6.634,17.189,1.352,22.096c5.596,3.439,12.853,2.36,17.207-2.558l38.499-43.485
							l4.971-3.831l5.848-4.242l1.329-12.726c0,0,3.514,1.556,6.258,2.814c4.331,1.985,5.775-1.624,5.775-1.624L619.092,232.005z"/>
					</g>
				</g>
				<g>
					<g>
						<g>
							<path style="fill:#AA6550;" d="M619.163,240.181c-0.064,0.043-0.342-0.294-0.805-0.801c-0.462-0.496-1.139-1.183-2.076-1.511
								c-0.922-0.313-1.877-0.045-2.382,0.327c-0.527,0.377-0.643,0.818-0.728,0.789c-0.053,0.007-0.074-0.528,0.492-1.072
								c0.542-0.523,1.652-0.916,2.786-0.536c1.099,0.39,1.789,1.202,2.193,1.773C619.051,239.737,619.218,240.144,619.163,240.181z
								"/>
						</g>
					</g>
				</g>
				<g>
					<g>
						<g>
							<path style="fill:#AA6550;" d="M612.976,243.578c-0.05-0.039,0.12-0.378,0.59-0.754c0.46-0.374,1.256-0.752,2.195-0.749
								c0.94,0.005,1.733,0.389,2.19,0.767c0.467,0.38,0.634,0.72,0.584,0.759c-0.059,0.052-0.319-0.187-0.792-0.455
								c-0.467-0.269-1.176-0.546-1.984-0.55c-0.808-0.002-1.519,0.269-1.988,0.534
								C613.297,243.393,613.035,243.631,612.976,243.578z"/>
						</g>
					</g>
				</g>
			</g>
			<g>
				<g>
					<g>
						<g>
							<path style="fill:#B78876;" d="M653.261,229.48l3.307,3.583c0,0,1.102,50.707,3.031,57.597
								c1.929,6.89,13.228,18.464,19.291,9.094c6.063-9.37-9.094-69.172-9.094-69.172s-4.134-13.779-4.409-17.086L653.261,229.48z"
								/>
						</g>
					</g>
					<g>
						<g>
							<path style="fill:#455A64;" d="M660.85,200.11l-1.303,35.03c-0.093,2.501-1.464,4.78-3.631,6.033l-10.55,6.102
								c-2.912,1.685-6.556-0.417-6.556-3.781v-32.435c0-1.841,0.999-3.536,2.608-4.429l15.791-8.757
								C658.879,196.947,660.921,198.201,660.85,200.11z"/>
						</g>
					</g>
				</g>
				<g>
					<g>
						<path style="fill:#FAFAFA;" d="M648.718,209.345c-0.569,1.158-0.092,2.557,1.066,3.126c1.158,0.569,2.558,0.091,3.127-1.066
							c0.569-1.158,0.091-2.558-1.066-3.126C650.687,207.71,649.287,208.187,648.718,209.345z"/>
					</g>
				</g>
				<g>
					<g>
						<path style="fill:#B78876;" d="M665.386,213.496c0,0-7.812-10.824-9.546-10.732c-1.733,0.091-10.126,5.109-9.761,6.203
							c0.365,1.095,2.098,1.733,3.649,1.003c1.551-0.73,4.288-3.375,4.926-2.828c0.639,0.547,2.463,2.463,2.463,2.463
							s-7.714,3.937-8.302,5.473c-0.6,1.572-2.007,4.288-0.182,5.291c1.188,0.654,3.102-0.091,3.831-3.193
							c0,0-1.46,4.47,0.795,5.565c2.428,1.179,3.173-1.301,5.134-3.74c1.649-2.051,2.391,0.559,2.391,0.559L665.386,213.496z"/>
					</g>
				</g>
				<g>
					<g>
						<g>
							<path style="fill:#AA6550;" d="M659.472,213.589c-0.011,0.081-0.564,0.031-1.429,0.138c-0.86,0.102-2.045,0.412-3.146,1.13
								c-1.102,0.719-1.862,1.679-2.302,2.425c-0.447,0.749-0.623,1.275-0.702,1.252c-0.06-0.013-0.009-0.587,0.376-1.425
								c0.377-0.831,1.149-1.909,2.343-2.689c1.194-0.779,2.492-1.051,3.404-1.061C658.938,213.344,659.483,213.529,659.472,213.589
								z"/>
						</g>
					</g>
				</g>
			</g>
			<g>
				<g>
					<g>
						<g>
							<g>
								<g>
									<g>
										<g>
											<g>
												<path style="fill:#B78876;" d="M593.68,142.422l0.009,4.513l-0.294,67.561c-0.034,7.843,6.682,14.119,15.081,14.092h0
													c8.482-0.028,15.486-6.469,15.651-14.391c0.173-8.316,0.508-17.067,0.508-17.067s10.745-1.588,13.213-15.526
													c1.227-6.931,1.081-18.335,0.659-27.662c-0.379-8.395-7.664-14.785-16.036-14.049L593.68,142.422z"/>
											</g>
										</g>
									</g>
								</g>
								<g>
									<g>
										<g>
											<g>
												<g>
													<path style="fill:#263238;" d="M635.221,162.446c0.017,0.947-0.772,1.742-1.761,1.778
														c-0.987,0.035-1.802-0.702-1.819-1.649c-0.017-0.947,0.771-1.743,1.758-1.779
														C634.388,160.76,635.204,161.499,635.221,162.446z"/>
												</g>
											</g>
										</g>
									</g>
									<g>
										<g>
											<g>
												<g>
													<g>
														<path style="fill:#263238;" d="M635.928,159.828c-0.226,0.23-1.567-0.799-3.496-0.829
															c-1.926-0.057-3.36,0.91-3.565,0.67c-0.101-0.106,0.133-0.524,0.757-0.962c0.615-0.436,1.657-0.852,2.859-0.826
															c1.201,0.028,2.204,0.488,2.777,0.951C635.846,159.298,636.039,159.725,635.928,159.828z"/>
													</g>
												</g>
											</g>
										</g>
									</g>
								</g>
								<g>
									<g>
										<g>
											<g>
												<g>
													<path style="fill:#263238;" d="M616.949,162.121c0.017,0.947-0.772,1.742-1.761,1.778
														c-0.987,0.035-1.802-0.702-1.819-1.649c-0.017-0.947,0.772-1.743,1.759-1.779
														C616.117,160.435,616.932,161.174,616.949,162.121z"/>
												</g>
											</g>
										</g>
									</g>
									<g>
										<g>
											<g>
												<g>
													<g>
														<path style="fill:#263238;" d="M616.961,159.851c-0.227,0.23-1.569-0.799-3.496-0.828
															c-1.926-0.057-3.36,0.91-3.565,0.67c-0.1-0.106,0.131-0.524,0.758-0.962c0.615-0.436,1.657-0.852,2.858-0.826
															c1.202,0.028,2.204,0.488,2.778,0.951C616.877,159.322,617.071,159.748,616.961,159.851z"/>
													</g>
												</g>
											</g>
										</g>
									</g>
								</g>
								<g>
									<g>
										<g>
											<g>
												<g>
													<path style="fill:#263238;" d="M623.707,174.28c-0.007-0.11,1.196-0.295,3.143-0.509
														c0.493-0.042,0.961-0.132,1.05-0.466c0.122-0.354-0.074-0.889-0.303-1.466c-0.442-1.2-0.904-2.458-1.39-3.777
														c-1.928-5.376-3.314-9.793-3.097-9.869c0.217-0.076,1.956,4.22,3.884,9.597c0.463,1.325,0.907,2.589,1.328,3.798
														c0.177,0.563,0.486,1.204,0.221,1.938c-0.139,0.366-0.506,0.626-0.823,0.706c-0.318,0.091-0.595,0.091-0.839,0.101
														C624.926,174.403,623.712,174.39,623.707,174.28z"/>
												</g>
											</g>
										</g>
									</g>
								</g>
								<g>
									<g>
										<g>
											<g>
												<path style="fill:#AA6550;" d="M624.634,197.13c0,0-9.414,0.439-18.631-5.326c0,0,4.371,9.682,18.383,8.623
													L624.634,197.13z"/>
											</g>
										</g>
									</g>
								</g>
								<g>
									<g>
										<g>
											<g>
												<path style="fill:#AA6550;" d="M622.809,178.915c-0.678-0.93-1.884-1.455-3.093-1.346
													c-0.839,0.075-1.692,0.464-2.212,1.137c-0.521,0.673-0.644,1.638-0.194,2.297c0.508,0.741,1.592,0.929,2.517,0.684
													c0.926-0.245,1.728-0.838,2.492-1.428c0.211-0.164,0.427-0.334,0.561-0.561c0.134-0.227,0.167-0.526,0.01-0.718"/>
											</g>
										</g>
									</g>
								</g>
								<g>
									<g>
										<g>
											<g>
												<g>
													<path style="fill:#263238;" d="M618.006,175.514c0.314-0.013,0.281,2.081,2.047,3.599
														c1.762,1.523,3.999,1.327,4.01,1.62c0.027,0.132-0.504,0.398-1.447,0.406c-0.925,0.015-2.269-0.305-3.349-1.234
														c-1.077-0.931-1.526-2.155-1.582-3.016C617.621,176.014,617.864,175.499,618.006,175.514z"/>
												</g>
											</g>
										</g>
									</g>
								</g>
							</g>
						</g>
					</g>
					<g>
						<g>
							<g>
								<path style="fill:#263238;" d="M576.836,221.202c11.517,0.906,21.661-7.309,23.385-18.732
									c0.18-1.191,0.384-2.164,0.639-2.802c1.623-4.057,1.648-8.652,0.527-12.876c-0.519-1.956-1.262-4.097-0.373-5.915
									c0.645-1.319,1.997-2.109,3.104-3.074c2.489-2.172,3.848-5.451,4.124-8.743c0.276-3.292-0.451-6.602-1.602-9.699
									c-0.633-1.704-1.403-3.572-0.761-5.273c0.455-1.203,1.525-2.041,2.481-2.901c2.02-1.819,3.712-4.002,4.97-6.413
									c1.28-2.454,2.108-5.641-1.23-7.585c-0.699-0.407-1.483-0.652-2.282-0.775c-5.908-0.916-12.95-0.036-16.908,4.614
									c-3.226,3.79-3.684,9.135-3.995,14.102c-0.982,15.645-26.884,44.713-16.873,66.14L576.836,221.202z"/>
							</g>
						</g>
					</g>
					<g>
						<g>
							<g>
								<g>
									<path style="fill:#263238;" d="M617.593,152.3c-0.2,0.521-2.121,0.238-4.389,0.471c-2.273,0.187-4.109,0.817-4.401,0.341
										c-0.13-0.228,0.197-0.715,0.944-1.21c0.74-0.494,1.916-0.955,3.277-1.082c1.361-0.124,2.601,0.113,3.419,0.463
										C617.268,151.633,617.679,152.053,617.593,152.3z"/>
								</g>
							</g>
						</g>
					</g>
					<g>
						<g>
							<g>
								<g>
									<path style="fill:#263238;" d="M635.318,154.232c-0.347,0.432-1.668-0.046-3.266-0.096
										c-1.596-0.106-2.956,0.242-3.26-0.222c-0.132-0.225,0.088-0.66,0.687-1.064c0.59-0.403,1.57-0.723,2.668-0.671
										c1.097,0.054,2.042,0.468,2.589,0.927C635.294,153.567,635.472,154.021,635.318,154.232z"/>
								</g>
							</g>
						</g>
					</g>
				</g>
			</g>
		</g>
		<g>
			<g>
				<g>
					<g>
						<path style="fill:#455A64;" d="M688.683,163.9c0,1.083-0.878,1.96-1.96,1.96c-1.083,0-1.96-0.878-1.96-1.96
							s0.878-1.96,1.96-1.96C687.805,161.94,688.683,162.817,688.683,163.9z"/>
					</g>
				</g>
				<g>
					<g>
						<circle style="fill:#455A64;" cx="694.567" cy="163.9" r="1.96"/>
					</g>
				</g>
				<g>
					<g>
						<path style="fill:#455A64;" d="M704.351,162.92c0.541,0.938,0.22,2.136-0.717,2.678c-0.938,0.541-2.136,0.22-2.678-0.717
							c-0.541-0.938-0.22-2.136,0.717-2.678C702.611,161.661,703.81,161.982,704.351,162.92z"/>
					</g>
				</g>
			</g>
			<g>
				<g>
					<g>
						<path style="fill:#455A64;" d="M694.688,141.006c0-0.009,0.134-0.011,0.396-0.007c0.288,0.008,0.673,0.019,1.165,0.033
							c0.256,0.012,0.544,0.012,0.859,0.038c0.315,0.044,0.658,0.092,1.027,0.144c0.373,0.054,0.773,0.111,1.199,0.172
							c0.421,0.104,0.867,0.215,1.339,0.332c1.882,0.484,4.162,1.311,6.493,2.831c2.329,1.495,4.75,3.634,6.715,6.54
							c1.928,2.91,3.415,6.571,3.809,10.682c0.039,1.029,0.163,2.076,0.063,3.139c-0.037,0.531-0.026,1.071-0.104,1.606
							c-0.081,0.535-0.162,1.074-0.244,1.617c-0.438,2.145-1.077,4.342-2.182,6.389c-1.08,2.051-2.472,4.003-4.173,5.742
							c-1.734,1.703-3.759,3.18-6.012,4.319c-2.247,1.148-4.737,1.941-7.329,2.249c-0.642,0.127-1.299,0.127-1.954,0.166
							c-0.656,0.043-1.315,0.067-1.976,0.036c-1.322-0.054-2.648-0.22-3.958-0.5c-2.846-0.606-5.526-1.765-7.879-3.316l0.239,0.024
							c-2.731,1.096-5.41,2.171-8.026,3.221l-0.475,0.191l0.136-0.493c0.81-2.945,1.597-5.809,2.359-8.58l0.04,0.212
							c-2.252-2.993-3.688-6.411-4.283-9.804c-0.298-1.695-0.425-3.388-0.312-5.023c0.035-0.819,0.074-1.627,0.228-2.413
							c0.061-0.394,0.122-0.785,0.182-1.174c0.072-0.386,0.189-0.76,0.281-1.136c1.551-6.039,5.27-10.5,8.954-13.053
							c1.844-1.299,3.663-2.23,5.329-2.811c0.415-0.148,0.815-0.292,1.2-0.43c0.396-0.1,0.775-0.197,1.139-0.289
							c0.363-0.09,0.711-0.176,1.043-0.258c0.334-0.064,0.657-0.099,0.959-0.145c0.607-0.077,1.14-0.182,1.607-0.205
							c0.46-0.015,0.852-0.029,1.179-0.04c0.299-0.007,0.536-0.012,0.72-0.016C694.606,140.996,694.688,140.999,694.688,141.006
							c0,0.007-0.082,0.018-0.243,0.033c-0.183,0.014-0.42,0.033-0.717,0.057c-0.325,0.022-0.715,0.048-1.172,0.079
							c-0.464,0.036-0.992,0.153-1.592,0.242c-2.362,0.433-5.903,1.375-9.52,4.02c-3.612,2.554-7.237,6.972-8.729,12.909
							c-0.088,0.37-0.202,0.737-0.27,1.117c-0.057,0.382-0.115,0.766-0.173,1.153c-0.148,0.771-0.182,1.564-0.212,2.369
							c-0.104,1.605,0.027,3.264,0.325,4.924c0.595,3.323,2.011,6.665,4.224,9.591l0.072,0.096l-0.032,0.116
							c-0.756,2.772-1.538,5.638-2.342,8.585l-0.34-0.303c2.614-1.053,5.292-2.131,8.022-3.23l0.126-0.051l0.114,0.075
							c2.302,1.514,4.922,2.646,7.703,3.238c1.28,0.274,2.576,0.437,3.869,0.489c0.647,0.031,1.291,0.007,1.932-0.035
							c0.641-0.039,1.284-0.036,1.911-0.161c2.534-0.299,4.968-1.072,7.167-2.192c2.205-1.111,4.189-2.552,5.889-4.215
							c1.668-1.698,3.035-3.606,4.099-5.611c1.089-2.001,1.719-4.151,2.158-6.252c0.082-0.532,0.164-1.06,0.245-1.584
							c0.078-0.525,0.069-1.054,0.108-1.575c0.103-1.043-0.016-2.071-0.048-3.081c-0.368-4.036-1.808-7.64-3.685-10.517
							c-1.914-2.873-4.282-5-6.567-6.5c-2.286-1.524-4.53-2.37-6.387-2.88c-0.466-0.124-0.907-0.242-1.323-0.352
							c-0.422-0.069-0.817-0.134-1.186-0.195c-0.366-0.06-0.706-0.116-1.018-0.168c-0.312-0.035-0.598-0.043-0.852-0.063
							c-0.489-0.036-0.873-0.063-1.159-0.084C694.822,141.031,694.688,141.015,694.688,141.006z"/>
					</g>
				</g>
			</g>
		</g>
	</g>
</g>
<g id="Character_2">
	<g>
		<path style="fill:#E0E0E0;" d="M248.839,324.096l-35.308,5.951c-13.216-11.398-30.413-18.305-49.234-18.305
			c-41.668,0-75.447,33.779-75.447,75.447c0,41.668,33.779,75.447,75.447,75.447s75.446-33.779,75.446-75.447
			c0-11.672-2.653-22.724-7.385-32.589L248.839,324.096z"/>
		<g>
			<g>
				<g>
					<g>
						<path style="fill:#263238;" d="M94.103,307.977c0,1.083,0.878,1.96,1.96,1.96c1.083,0,1.96-0.878,1.96-1.96
							c0-1.083-0.878-1.96-1.96-1.96C94.98,306.017,94.103,306.895,94.103,307.977z"/>
					</g>
				</g>
				<g>
					<g>
						<path style="fill:#263238;" d="M86.258,307.977c0,1.083,0.878,1.96,1.96,1.96c1.083,0,1.96-0.878,1.96-1.96
							c0-1.083-0.878-1.96-1.96-1.96C87.136,306.017,86.258,306.895,86.258,307.977z"/>
					</g>
				</g>
				<g>
					<g>
						<path style="fill:#263238;" d="M78.434,306.997c-0.541,0.938-0.22,2.136,0.717,2.678c0.938,0.541,2.136,0.22,2.678-0.717
							c0.541-0.938,0.22-2.136-0.717-2.678C80.175,305.738,78.976,306.06,78.434,306.997z"/>
					</g>
				</g>
			</g>
			<g>
				<g>
					<g>
						<path style="fill:#263238;" d="M88.097,285.083c0,0.009-0.134,0.025-0.395,0.047c-0.286,0.021-0.67,0.049-1.159,0.084
							c-0.254,0.02-0.54,0.028-0.852,0.063c-0.312,0.051-0.652,0.107-1.018,0.168c-0.369,0.061-0.764,0.125-1.186,0.195
							c-0.415,0.111-0.856,0.228-1.323,0.353c-1.857,0.509-4.101,1.355-6.387,2.88c-2.285,1.5-4.653,3.627-6.567,6.5
							c-1.877,2.877-3.317,6.48-3.685,10.517c-0.032,1.01-0.151,2.037-0.048,3.081c0.039,0.52,0.029,1.05,0.108,1.574
							c0.081,0.524,0.163,1.052,0.245,1.584c0.438,2.1,1.069,4.251,2.158,6.251c1.063,2.005,2.431,3.913,4.099,5.611
							c1.701,1.663,3.684,3.104,5.889,4.215c2.199,1.12,4.633,1.892,7.167,2.192c0.627,0.125,1.27,0.123,1.911,0.161
							c0.641,0.042,1.285,0.065,1.932,0.035c1.292-0.053,2.588-0.215,3.868-0.489c2.782-0.592,5.401-1.724,7.703-3.238l0.114-0.075
							l0.126,0.051c2.73,1.099,5.408,2.178,8.022,3.23l-0.34,0.302c-0.804-2.947-1.585-5.813-2.342-8.585l-0.032-0.116l0.072-0.096
							c2.213-2.926,3.629-6.267,4.224-9.591c0.299-1.66,0.43-3.319,0.325-4.924c-0.03-0.804-0.065-1.598-0.213-2.369
							c-0.058-0.387-0.116-0.772-0.173-1.153c-0.068-0.38-0.183-0.747-0.27-1.117c-1.491-5.937-5.117-10.355-8.729-12.909
							c-3.618-2.645-7.158-3.587-9.52-4.02c-0.601-0.089-1.129-0.206-1.592-0.242c-0.457-0.031-0.847-0.057-1.172-0.079
							c-0.298-0.023-0.534-0.042-0.717-0.057C88.179,285.102,88.097,285.09,88.097,285.083c0-0.007,0.082-0.01,0.244-0.009
							c0.184,0.004,0.421,0.009,0.72,0.016c0.327,0.011,0.719,0.024,1.179,0.04c0.467,0.023,1,0.128,1.607,0.205
							c0.302,0.047,0.625,0.081,0.959,0.145c0.332,0.082,0.679,0.168,1.043,0.258c0.364,0.092,0.744,0.189,1.139,0.289
							c0.385,0.138,0.785,0.281,1.2,0.43c1.666,0.581,3.484,1.512,5.329,2.811c3.684,2.553,7.404,7.014,8.954,13.053
							c0.091,0.376,0.209,0.75,0.281,1.136c0.06,0.389,0.121,0.78,0.182,1.174c0.154,0.785,0.193,1.593,0.228,2.413
							c0.113,1.635-0.014,3.327-0.312,5.023c-0.595,3.394-2.031,6.811-4.283,9.804l0.04-0.212c0.762,2.771,1.549,5.635,2.359,8.58
							l0.136,0.493l-0.475-0.191c-2.615-1.05-5.294-2.125-8.025-3.221l0.239-0.024c-2.353,1.551-5.033,2.71-7.879,3.316
							c-1.31,0.28-2.636,0.446-3.958,0.5c-0.661,0.031-1.32,0.007-1.976-0.036c-0.655-0.04-1.313-0.039-1.954-0.166
							c-2.592-0.309-5.081-1.101-7.329-2.249c-2.254-1.139-4.278-2.616-6.012-4.319c-1.701-1.738-3.093-3.691-4.173-5.742
							c-1.105-2.047-1.744-4.244-2.182-6.389c-0.082-0.543-0.163-1.082-0.244-1.617c-0.078-0.535-0.067-1.075-0.104-1.606
							c-0.099-1.064,0.025-2.111,0.063-3.139c0.394-4.112,1.881-7.772,3.809-10.682c1.965-2.906,4.385-5.044,6.715-6.54
							c2.331-1.52,4.611-2.347,6.493-2.831c0.472-0.117,0.919-0.228,1.339-0.332c0.427-0.061,0.826-0.119,1.199-0.172
							c0.37-0.052,0.712-0.1,1.027-0.144c0.315-0.026,0.603-0.026,0.859-0.038c0.492-0.014,0.877-0.025,1.165-0.033
							C87.963,285.072,88.097,285.074,88.097,285.083z"/>
					</g>
				</g>
			</g>
		</g>
		<g>
			<g>
				<g>
					<g>
						<path style="fill:#263238;" d="M172.551,271.222c1.827-4.075,6.1-6.939,10.572-7.089c4.473-0.149,8.928,2.424,11.024,6.368
							c1.248,2.347,1.74,5.144,3.543,7.099c2.248,2.437,6.388,2.825,9.051,0.847c0.729,2.848-1.035,6.107-3.823,7.06
							c1.474,0.151,2.948,0.302,4.422,0.453c-2.386,5.207-8.92,7.591-14.568,6.575c-5.648-1.017-10.448-4.753-14.292-9.004"/>
					</g>
				</g>
				<g>
					<g>
						<g>
							<path style="fill:#263238;" d="M172.583,271.295l13.641,4.467c4.797,3.173,8.621,7.826,10.505,13.258
								c0.638,1.84,1.073,3.756,1.88,5.529c0.807,1.773,2.06,3.443,3.842,4.239c1.311,0.585,2.797,0.653,4.143,1.15
								c2.277,0.839,4.001,2.925,4.578,5.278c0.576,2.352,0.054,4.913-1.237,6.963c-0.647,1.027-1.508,2.023-1.564,3.235
								c-0.038,0.82,0.306,1.602,0.498,2.4c0.652,2.71-0.642,5.772-3.043,7.198c-2.401,1.426-5.717,1.102-7.795-0.761
								c-0.872,2.003-2.033,4.065-4.009,5.008c-1.976,0.942-4.892,0.095-5.303-2.05c-0.983,2.058-3.439,3.301-5.685,2.876
								c-2.246-0.425-4.075-2.479-4.233-4.754l-37.385-40.779C146.997,269.633,168.817,270.952,172.583,271.295z"/>
						</g>
					</g>
					<g>
						<g>
							<g>
								<g>
									<g>
										<g>
											<g>
												<g>
													<g>
														<g>
															<g>
																<g>
																	<g>
																		<g>
																			<g>
																				<path style="fill:#FFBE9D;" d="M178.914,285.479c2.406,0.254,4.218,2.302,4.17,4.715l0,0l-2.641,62.787
																					c-0.1,7.415-13.589,16.182-21.548,16.015l0,0c-8.038-0.169-5.675-8.677-5.791-15.731
																					c-0.194-11.785-0.19-16.209-0.194-16.142c0,0-10.157-1.682-12.261-14.899
																					c-1.046-6.573-0.715-17.35-0.159-26.159c0.501-7.929,5.768-17.658,13.689-16.822L178.914,285.479z"/>
																			</g>
																		</g>
																	</g>
																</g>
															</g>
														</g>
													</g>
												</g>
												<g>
													<g>
														<g>
															<g>
																<g>
																	<g>
																		<g>
																			<g>
																				<g>
																					<path style="fill:#263238;" d="M143.933,304.621c-0.032,0.895,0.702,1.66,1.639,1.71
																						c0.935,0.05,1.72-0.633,1.752-1.528c0.032-0.895-0.702-1.661-1.637-1.711
																						C144.75,303.042,143.965,303.726,143.933,304.621z"/>
																				</g>
																			</g>
																		</g>
																	</g>
																</g>
															</g>
														</g>
													</g>
													<g>
														<g>
															<g>
																<g>
																	<g>
																		<g>
																			<g>
																				<g>
																					<g>
																						<path style="fill:#263238;" d="M142.834,301.672c0.211,0.221,1.498-0.729,3.327-0.724
																							c1.827-0.021,3.169,0.917,3.367,0.694c0.098-0.099-0.117-0.498-0.702-0.922
																							c-0.575-0.423-1.556-0.833-2.696-0.829c-1.139,0.006-2.097,0.425-2.648,0.853
																							C142.921,301.173,142.73,301.573,142.834,301.672z"/>
																					</g>
																				</g>
																			</g>
																		</g>
																	</g>
																</g>
															</g>
														</g>
													</g>
												</g>
												<g>
													<g>
														<g>
															<g>
																<g>
																	<g>
																		<g>
																			<g>
																				<g>
																					<path style="fill:#263238;" d="M161.811,304.621c-0.032,0.895,0.702,1.66,1.639,1.71
																						c0.935,0.05,1.72-0.633,1.752-1.528c0.032-0.895-0.702-1.661-1.637-1.711
																						C162.628,303.042,161.842,303.726,161.811,304.621z"/>
																				</g>
																			</g>
																		</g>
																	</g>
																</g>
															</g>
														</g>
													</g>
													<g>
														<g>
															<g>
																<g>
																	<g>
																		<g>
																			<g>
																				<g>
																					<g>
																						<path style="fill:#263238;" d="M160.81,302.012c0.211,0.221,1.5-0.729,3.327-0.724
																							c1.827-0.021,3.169,0.917,3.367,0.694c0.097-0.099-0.115-0.498-0.702-0.922
																							c-0.575-0.423-1.556-0.833-2.695-0.829c-1.139,0.007-2.097,0.425-2.648,0.853
																							C160.899,301.514,160.707,301.913,160.81,302.012z"/>
																					</g>
																				</g>
																			</g>
																		</g>
																	</g>
																</g>
															</g>
														</g>
													</g>
												</g>
												<g>
													<g>
														<g>
															<g>
																<g>
																	<g>
																		<g>
																			<g>
																				<g>
																					<path style="fill:#263238;" d="M154.173,315.539c0.008-0.104-1.128-0.299-2.97-0.535
																						c-0.467-0.048-0.909-0.141-0.988-0.458c-0.11-0.337,0.086-0.839,0.312-1.381
																						c0.439-1.127,0.899-2.309,1.381-3.547c1.918-5.049,3.306-9.202,3.102-9.277
																						c-0.205-0.075-1.925,3.957-3.843,9.007c-0.462,1.245-0.903,2.432-1.323,3.568
																						c-0.177,0.529-0.481,1.13-0.242,1.828c0.126,0.348,0.469,0.601,0.768,0.681
																						c0.299,0.091,0.562,0.096,0.793,0.11C153.016,315.635,154.166,315.643,154.173,315.539z"/>
																				</g>
																			</g>
																		</g>
																	</g>
																</g>
															</g>
														</g>
													</g>
												</g>
												<g>
													<g>
														<g>
															<g>
																<g>
																	<g>
																		<g>
																			<g>
																				<path style="fill:#EB996E;" d="M152.91,337.124c0,0,8.915,0.573,17.747-4.722c0,0-4.305,9.079-17.568,7.843
																					L152.91,337.124z"/>
																			</g>
																		</g>
																	</g>
																</g>
															</g>
														</g>
													</g>
												</g>
												<g>
													<g>
														<g>
															<g>
																<g>
																	<g>
																		<g>
																			<g>
																				<path style="fill:#EB996E;" d="M154.947,319.935c0.658-0.867,1.81-1.344,2.954-1.221
																					c0.794,0.085,1.596,0.467,2.078,1.111c0.482,0.645,0.583,1.56,0.145,2.174
																					c-0.493,0.692-1.525,0.852-2.397,0.605c-0.873-0.247-1.624-0.821-2.337-1.391
																					c-0.197-0.158-0.399-0.323-0.522-0.539c-0.123-0.216-0.15-0.5,0.003-0.679"/>
																			</g>
																		</g>
																	</g>
																</g>
															</g>
														</g>
													</g>
												</g>
												<g>
													<g>
														<g>
															<g>
																<g>
																	<g>
																		<g>
																			<g>
																				<g>
																					<path style="fill:#263238;" d="M159.555,316.801c-0.297-0.017-0.301,1.963-2,3.368
																						c-1.696,1.41-3.812,1.188-3.827,1.464c-0.028,0.124,0.471,0.385,1.364,0.409
																						c0.876,0.03,2.156-0.251,3.195-1.11c1.037-0.862,1.482-2.012,1.55-2.824
																						C159.912,317.28,159.691,316.79,159.555,316.801z"/>
																				</g>
																			</g>
																		</g>
																	</g>
																</g>
															</g>
														</g>
													</g>
												</g>
											</g>
										</g>
									</g>
									<g>
										<g>
											<g>
												<g>
													<g>
														<g>
															<g>
																<g>
																	<path style="fill:#263238;" d="M159.988,298.819c0.18,0.496,2.006,0.261,4.152,0.519
																		c2.151,0.215,3.881,0.841,4.166,0.397c0.127-0.213-0.174-0.679-0.874-1.16c-0.693-0.479-1.8-0.935-3.088-1.078
																		c-1.288-0.14-2.467,0.063-3.249,0.381C160.307,298.194,159.91,298.583,159.988,298.819z"/>
																</g>
															</g>
														</g>
													</g>
												</g>
											</g>
										</g>
									</g>
									<g>
										<g>
											<g>
												<g>
													<g>
														<g>
															<g>
																<g>
																	<path style="fill:#263238;" d="M143.507,296.393c0.322,0.414,1.581-0.016,3.096-0.036
																		c1.514-0.073,2.798,0.278,3.093-0.155c0.13-0.21-0.072-0.625-0.633-1.018c-0.552-0.391-1.476-0.71-2.517-0.679
																		c-1.041,0.033-1.943,0.408-2.47,0.833C143.54,295.764,143.365,296.191,143.507,296.393z"/>
																</g>
															</g>
														</g>
													</g>
												</g>
											</g>
										</g>
									</g>
								</g>
							</g>
							<g>
								<g>
									<g>
										<g>
											<g>
												<path style="fill:#FFBE9D;" d="M181.617,306.62c1.004-0.694,2.408-0.437,3.465,0.173
													c2.435,1.405,3.646,4.616,2.742,7.273c-0.904,2.657-3.824,4.47-6.613,4.107"/>
											</g>
										</g>
									</g>
								</g>
							</g>
							<g>
								<g>
									<g>
										<g>
											<g>
												<path style="fill:#263238;" d="M160.783,274.841c-4.829,0.16-8.492,1.625-12.732,3.939s-7.783,6.131-9.089,10.771
													c-0.277,0.985-0.435,2.108,0.106,2.977c0.714,1.147,2.401,1.338,3.635,0.781c1.234-0.556,2.119-1.657,2.956-2.719
													c0.627,2.425,3.038,4.268,5.549,4.24c2.511-0.028,4.881-1.924,5.453-4.362c0.02,2.538,2.566,4.636,5.108,4.544
													c2.543-0.091,4.794-2.047,5.64-4.44c0.473,2.255,0.977,4.585,2.331,6.453c1.353,1.867,3.803,3.152,5.999,2.438
													c-0.311,1.97-0.614,4.044,0.087,5.911c0.701,1.868,2.781,3.38,4.672,2.732c1.836-0.629,2.548-2.798,2.978-4.686
													c0.828-3.641,1.537-7.346,1.42-11.078c-0.117-3.731-1.117-7.526-3.411-10.476c-2.374-3.052-5.969-4.987-9.713-5.973
													c-3.744-0.986-7.661-1.096-11.533-1.047"/>
											</g>
										</g>
									</g>
								</g>
							</g>
							<g>
								<g>
									<g>
										<g>
											<g>
												<g>
													<path style="fill:#EB996E;" d="M182.543,314.23c0.038-0.094,0.515,0.113,1.155-0.18
														c0.63-0.249,1.203-1.178,1.137-2.258c-0.037-1.095-0.747-1.88-1.413-2.12c-0.663-0.271-1.151-0.138-1.179-0.241
														c-0.046-0.065,0.45-0.416,1.325-0.221c0.421,0.098,0.913,0.349,1.296,0.806c0.38,0.45,0.626,1.075,0.658,1.74
														c0.096,1.333-0.743,2.542-1.658,2.749C182.96,314.742,182.472,314.284,182.543,314.23z"/>
												</g>
											</g>
										</g>
									</g>
								</g>
							</g>
						</g>
					</g>
				</g>
				<g>
					<g>
						<ellipse style="fill:#E8505B;" cx="182.938" cy="318.058" rx="1.728" ry="1.724"/>
					</g>
				</g>
				<g>
					<g>
						<g>
							<path style="fill:#E8505B;" d="M172.76,270.625c-0.011-0.049,0.8-0.284,2.152-0.245c1.345,0.032,3.221,0.439,5.021,1.471
								c1.797,1.039,3.091,2.459,3.792,3.607c0.711,1.151,0.913,1.971,0.864,1.986c-0.085,0.036-0.407-0.723-1.169-1.78
								c-0.755-1.058-2.028-2.367-3.747-3.362c-1.723-0.986-3.493-1.43-4.787-1.555C173.59,270.616,172.771,270.717,172.76,270.625z
								"/>
						</g>
					</g>
				</g>
				<g>
					<g>
						<g>
							<path style="fill:#455A64;" d="M179.687,270.632c-0.018,0.001-0.034-0.14-0.046-0.416c0.003-0.273,0.047-0.688,0.253-1.177
								c0.378-0.978,1.552-2.21,3.421-2.648c1.891-0.516,4.284,0.453,5.946,2.282c0.85,0.909,1.569,2.009,2.156,3.214
								c0.589,1.203,1.069,2.495,1.576,3.797c0.507,1.301,1.032,2.558,1.697,3.671c0.667,1.109,1.483,2.078,2.408,2.812
								c0.921,0.737,1.964,1.22,2.994,1.364c1.027,0.172,2.01-0.05,2.824-0.394c1.643-0.741,2.558-2,2.979-2.896
								c0.411-0.925,0.432-1.509,0.488-1.5c0.018,0.002,0.015,0.144-0.008,0.417c-0.027,0.272-0.111,0.671-0.294,1.163
								c-0.381,0.956-1.286,2.317-3.013,3.151c-0.855,0.389-1.916,0.653-3.037,0.487c-1.117-0.136-2.248-0.645-3.23-1.414
								c-0.988-0.767-1.848-1.775-2.549-2.926c-0.698-1.156-1.234-2.437-1.745-3.745c-0.992-2.617-1.953-5.126-3.599-6.874
								c-1.576-1.76-3.764-2.678-5.517-2.248c-1.756,0.365-2.905,1.477-3.314,2.372
								C179.636,270.031,179.758,270.641,179.687,270.632z"/>
						</g>
					</g>
				</g>
				<g>
					<g>
						<g>
							<path style="fill:#455A64;" d="M154.721,291.044c-0.018,0.002-0.047-0.123-0.085-0.363c-0.029-0.241-0.109-0.596-0.122-1.06
								c-0.08-0.924-0.052-2.281,0.245-3.921c0.29-1.64,0.94-3.546,2.025-5.471c1.111-1.903,2.695-3.822,4.796-5.29
								c2.087-1.48,4.379-2.4,6.511-2.935c2.137-0.547,4.139-0.687,5.8-0.593c1.663,0.097,2.99,0.391,3.865,0.704
								c0.447,0.126,0.767,0.304,0.993,0.394c0.222,0.101,0.335,0.162,0.327,0.178c-0.032,0.122-1.915-0.83-5.199-0.908
								c-1.629-0.046-3.583,0.129-5.665,0.689c-2.078,0.547-4.308,1.461-6.33,2.895c-2.033,1.42-3.579,3.269-4.683,5.107
								c-1.078,1.86-1.749,3.705-2.079,5.301C154.442,288.981,154.85,291.044,154.721,291.044z"/>
						</g>
					</g>
				</g>
				<g>
					<g>
						<g>
							<path style="fill:#455A64;" d="M163.07,290.154c-0.032-0.001-0.06-0.367-0.036-1.029c0.022-0.662,0.125-1.621,0.385-2.782
								c0.503-2.309,1.805-5.462,4.3-8.148c2.496-2.687,5.542-4.22,7.806-4.896c1.137-0.347,2.085-0.522,2.744-0.596
								c0.659-0.075,1.026-0.074,1.029-0.043c0.015,0.098-1.452,0.218-3.657,0.988c-2.192,0.752-5.119,2.295-7.54,4.901
								c-2.42,2.606-3.739,5.64-4.324,7.882C163.175,288.689,163.169,290.161,163.07,290.154z"/>
						</g>
					</g>
				</g>
			</g>
			<g>
				<g>
					<g>
						<path style="fill:#E8505B;" d="M160.783,368.225c-2.893-8.868-9.969-17.899-17.743-14.641
							c-8.653,3.626-11.058,8.222-15.8,15.344c-4.742,7.122-7.651,15.272-10.514,23.331c-1.12,3.152-2.201,6.808-0.483,9.681
							c1.481,2.477,4.53,3.456,7.324,4.199c7.206,1.917,14.486,3.559,21.817,4.922c2.941,0.547,6.168,1.005,8.769-0.47
							c3.304-1.874,4.311-6.07,4.999-9.798c2.415-13.084,4.83-26.168,7.244-39.252"/>
					</g>
				</g>
				<g>
					<g>
						<g>
							<g>
								<g>
									<path style="fill:#E8505B;" d="M152.461,349.328l-11.383,4.908c-5.753,4.53-7.38,12.289-7.184,19.597l-4.733,80.138
										c0,0,33.2,20.521,71.997-0.939c1.011-0.559-6.496-18.888-6.496-18.888l10.567-40.017c0.814-5.754,1.311-17.683-0.19-23.345
										c-3.852-14.522-14.151-18.866-24.729-21.775c0,0-10.583,8.88-20.908,7.009
										C159.403,356.016,153.104,355.431,152.461,349.328z"/>
								</g>
							</g>
						</g>
					</g>
					<g style="opacity:0.2;">
						<g>
							<g>
								<path d="M137.174,416.047c6.567,9.516,13.134,19.033,19.701,28.549c2.568,3.721,5.237,7.542,9.047,9.976
									c5.537,3.538,13.166,3.459,18.63-0.192c5.463-3.651,8.454-10.67,7.304-17.139c-0.136-0.767-0.344-1.561-0.875-2.13
									c-0.82-0.88-2.211-0.985-3.364-0.644s-2.158,1.046-3.221,1.61c-6.185,3.283-14.041,1.519-19.844-2.4
									s-10.063-9.668-14.506-15.08c-1.643-2.002-3.438-4.051-5.869-4.945c-2.431-0.894-5.658-0.163-6.688,2.213"/>
							</g>
						</g>
					</g>
				</g>
				<g>
					<g>
						<ellipse style="fill:#FFFFFF;" cx="170.353" cy="369.999" rx="6.801" ry="6.784"/>
					</g>
				</g>
				<g>
					<g>
						<path style="fill:#FFFFFF;" d="M138.653,364.211c0,3.746,3.045,6.784,6.801,6.784c3.756,0,6.801-3.037,6.801-6.784
							c0-3.746-3.045-6.784-6.801-6.784C141.698,357.427,138.653,360.464,138.653,364.211z"/>
					</g>
				</g>
				<g>
					<g>
						<path style="fill:#FFFFFF;" d="M133.166,429.167c0,3.746,3.045,6.784,6.801,6.784c3.756,0,6.801-3.037,6.801-6.784
							c0-3.746-3.045-6.784-6.801-6.784C136.211,422.384,133.166,425.421,133.166,429.167z"/>
					</g>
				</g>
				<g>
					<g>
						<ellipse style="fill:#FFFFFF;" cx="152.256" cy="448.698" rx="6.801" ry="6.784"/>
					</g>
				</g>
				<g>
					<g>
						<ellipse style="fill:#FFFFFF;" cx="183.955" cy="450.343" rx="6.801" ry="6.784"/>
					</g>
				</g>
				<g>
					<g>
						<ellipse style="fill:#FFFFFF;" cx="157.099" cy="408.578" rx="6.801" ry="6.784"/>
					</g>
				</g>
				<g>
					<g>
						<ellipse style="fill:#FFFFFF;" cx="150.298" cy="387.189" rx="6.801" ry="6.784"/>
					</g>
				</g>
				<g>
					<g>
						<g>
							<path style="fill:#263238;" d="M150.298,350.976c0.121-0.089,0.841,2.08,3.505,4.314c1.309,1.115,3.116,2.15,5.275,2.861
								c2.16,0.698,4.687,1.029,7.292,0.742c2.608-0.317,5.014-1.126,7.057-2.137c2.052-1.004,3.764-2.171,5.128-3.237
								c1.366-1.067,2.405-2.016,3.107-2.688c0.703-0.671,1.088-1.049,1.118-1.022c0.024,0.021-0.311,0.446-0.974,1.165
								c-0.662,0.719-1.67,1.717-3.022,2.833c-1.35,1.115-3.065,2.331-5.145,3.379c-2.07,1.053-4.531,1.899-7.211,2.224
								c-2.689,0.297-5.29-0.061-7.503-0.803c-2.211-0.756-4.05-1.856-5.363-3.037c-1.32-1.174-2.176-2.342-2.64-3.207
								c-0.264-0.415-0.382-0.785-0.496-1.015C150.326,351.111,150.281,350.984,150.298,350.976z"/>
						</g>
					</g>
				</g>
				<g>
					<g>
						<g>
							<path style="fill:#E8505B;" d="M184.565,350.513c7.777,3.251,15.871,6.732,21.243,13.215
								c5.46,6.591,7.362,15.546,6.964,24.086c-0.397,8.54-2.883,16.829-5.351,25.016c-0.965,3.203-2.261,6.789-5.349,8.092
								c-2.663,1.124-5.702,0.116-8.396-0.932c-6.948-2.704-13.792-5.672-20.513-8.896c-2.696-1.293-5.57-2.827-6.793-5.55
								c-1.554-3.46,0.122-7.437,1.777-10.85c5.809-11.976,11.617-23.952,17.426-35.928"/>
						</g>
					</g>
					<g>
						<g>
							<ellipse style="fill:#FFFFFF;" cx="201.158" cy="391.955" rx="6.801" ry="6.784"/>
						</g>
					</g>
					<g>
						<g>
							<ellipse style="fill:#FFFFFF;" cx="183.147" cy="404.356" rx="6.801" ry="6.784"/>
						</g>
					</g>
					<g>
						<g>
							<path style="fill:#FFFFFF;" d="M184.947,371.057c0,3.673,2.986,6.651,6.669,6.651c3.683,0,6.669-2.978,6.669-6.651
								c0-3.674-2.986-6.652-6.669-6.652C187.932,364.406,184.947,367.384,184.947,371.057z"/>
						</g>
					</g>
					<g>
						<g>
							<g>
								<path style="fill:#FFBE9D;" d="M171.126,410.045l-1.734,6.678l-34.557-25.188l-10.582-15.04
									c-1.416-2.012-3.557-3.399-5.976-3.87l0,0c-2.566-0.5-5.225,0.073-7.356,1.584l-9.845,6.986c0,0,0.266,5.303,2.658,4.242
									c2.392-1.06,7.177-3.712,7.177-3.712l1.329,12.726l5.848,4.242l5.848,4.507l39.019,38.733
									c8.406,8.345,22.536,6.041,27.84-4.54l5.782-16.417L171.126,410.045z"/>
							</g>
						</g>
						<g>
							<g>
								<g>
									<path style="fill:#EB996E;" d="M168.521,415.772c0.021-0.052,0.668,0.159,1.451,0.893c0.786,0.72,1.612,2.005,2.021,3.579
										c0.407,1.572,0.41,3.037,0.375,4.072c-0.044,1.04-0.132,1.676-0.201,1.675c-0.075-0.001-0.117-0.644-0.168-1.673
										c-0.058-1.026-0.122-2.449-0.51-3.942c-0.389-1.489-1.108-2.713-1.782-3.456
										C169.04,416.167,168.477,415.846,168.521,415.772z"/>
								</g>
							</g>
						</g>
						<g>
							<g>
								<g>
									<path style="fill:#EB996E;" d="M110.85,382.385c-0.056-0.037,0.111-0.444,0.519-1.032c0.404-0.57,1.094-1.383,2.193-1.773
										c1.134-0.38,2.244,0.012,2.787,0.536c0.566,0.544,0.545,1.079,0.492,1.072c-0.084,0.029-0.201-0.412-0.728-0.789
										c-0.505-0.372-1.46-0.639-2.382-0.327c-0.937,0.328-1.614,1.015-2.076,1.511
										C111.192,382.09,110.913,382.428,110.85,382.385z"/>
								</g>
							</g>
						</g>
						<g>
							<g>
								<g>
									<path style="fill:#EB996E;" d="M117.036,385.782c-0.059,0.053-0.321-0.185-0.795-0.449
										c-0.469-0.265-1.18-0.536-1.988-0.534c-0.808,0.004-1.517,0.281-1.984,0.55c-0.472,0.268-0.732,0.507-0.791,0.455
										c-0.05-0.039,0.117-0.379,0.584-0.759c0.457-0.377,1.25-0.762,2.19-0.767c0.94-0.003,1.735,0.375,2.195,0.749
										C116.916,385.404,117.086,385.743,117.036,385.782z"/>
								</g>
							</g>
						</g>
					</g>
					<g>
						<g>
							<g>
								<path style="fill:#263238;" d="M171.126,410.045c0,0-0.243,0.004-0.664-0.159c-0.416-0.159-1.024-0.501-1.56-1.182
									c-0.536-0.672-0.998-1.664-1.136-2.885c-0.146-1.229,0.157-2.633,0.734-4.04c0.567-1.419,1.419-2.846,2.144-4.448
									c0.742-1.598,1.385-3.373,1.978-5.267c1.184-3.793,2.038-8.092,3.234-12.548c1.197-4.448,2.777-8.634,5.048-11.974
									c2.217-3.374,5.182-5.711,7.94-6.981c2.771-1.305,5.312-1.535,6.995-1.419c1.699,0.125,2.579,0.49,2.579,0.49
									c-0.013,0.064-0.915-0.227-2.588-0.287c-1.659-0.052-4.135,0.23-6.827,1.549c-2.685,1.291-5.545,3.591-7.7,6.915
									c-2.206,3.29-3.754,7.421-4.944,11.844c-1.189,4.429-2.06,8.739-3.278,12.555c-0.611,1.905-1.276,3.694-2.045,5.305
									c-0.756,1.621-1.621,3.03-2.195,4.407c-0.585,1.366-0.895,2.705-0.784,3.87c0.105,1.167,0.52,2.13,1.008,2.79
									c0.488,0.67,1.05,1.024,1.44,1.209C170.898,409.979,171.133,410.014,171.126,410.045z"/>
							</g>
						</g>
					</g>
				</g>
				<g>
					<g>
						<g>
							<path style="fill:#263238;" d="M132.774,388.331c-0.143-0.018,0.241-3.9,0.856-8.67c0.615-4.771,1.23-8.622,1.373-8.604
								c0.143,0.018-0.241,3.9-0.856,8.671C133.531,384.497,132.916,388.349,132.774,388.331z"/>
						</g>
					</g>
				</g>
				<g>
					<g>
						<g>
							<g>
								<path style="fill:#FFBE9D;" d="M117.231,403.183l-1.835,14.439l-22.018-18.767l-12.043,2.908c0,0,12.417,26.073,22.226,36.4
									s15.099,11.795,18.8,11.957c5.089,0.223,7.414-5.974,7.414-5.974l2.217-35.889L117.231,403.183z"/>
							</g>
						</g>
						<g>
							<g>
								<g>
									<path style="fill:#EB996E;" d="M115.481,417.237c0.123-0.06,0.976,1.497,1.552,3.597c0.584,2.099,0.652,3.872,0.516,3.884
										c-0.15,0.017-0.445-1.694-1.018-3.745C115.968,418.919,115.343,417.299,115.481,417.237z"/>
								</g>
							</g>
						</g>
					</g>
					<g>
						<g>
							<g>
								<path style="fill:#455A64;" d="M91.249,362.256H74.674c-2.508,0-4.746,2.907-3.845,5.283l16.668,32.466
									c0.644,1.258,1.941,2.049,3.357,2.049l20.207-0.043c2.317-0.312,3.163-2.883,2.202-4.278l-16.083-31.785
									C96.073,363.689,93.772,362.256,91.249,362.256z"/>
							</g>
						</g>
						<g>
							<g>
								<path style="fill:#263238;" d="M90.13,364.211H73.555c-2.077,0-3.42,2.189-2.475,4.034l16.272,31.76
									c0.644,1.258,1.941,2.049,3.357,2.049h19.976c1.218,0,2.008-1.281,1.459-2.365l-16.083-31.785
									C94.954,365.644,92.652,364.211,90.13,364.211z"/>
							</g>
						</g>
					</g>
					<g>
						<g>
							<g>
								<path style="fill:#FFBE9D;" d="M88.724,377.507l-10.087,4.03l-2.162,8.128l4.859,12.099l17.825,2.593l-5.221-5.335
									l0.672-4.645c0,0,4.973-1.56,5.096-2.32c0.123-0.761-0.617-3.313-1.38-3.435c-0.763-0.122-5.979,1.819-5.979,1.819
									s6.174-4.887,6.001-5.672c-0.173-0.785-0.836-2.793-2.067-3.015c-1.231-0.223-11.194,4.472-11.194,4.472l-1.618,3.688
									l-1.411-5.898C82.059,384.014,90.911,381.532,88.724,377.507z"/>
							</g>
						</g>
						<g>
							<g>
								<g>
									<path style="fill:#EB996E;" d="M89.993,396.563c-0.06,0.018-0.249-0.35-0.342-1.005c-0.096-0.651-0.049-1.591,0.302-2.546
										c0.355-0.954,0.932-1.698,1.428-2.129c0.497-0.437,0.88-0.594,0.913-0.541c0.099,0.12-1.214,1.066-1.853,2.852
										C89.763,394.964,90.146,396.537,89.993,396.563z"/>
								</g>
							</g>
						</g>
						<g>
							<g>
								<g>
									<path style="fill:#EB996E;" d="M85.199,394.802c-0.059-0.03,0.299-0.983,0.4-2.643c0.078-0.822,0.125-1.841,0.508-2.927
										c0.193-0.537,0.479-1.095,0.929-1.562c0.449-0.473,1.045-0.796,1.648-1.036c2.412-0.875,4.584-1.583,6.174-2.097
										c1.587-0.506,2.581-0.785,2.605-0.717c0.024,0.068-0.927,0.47-2.483,1.065c-1.549,0.599-3.734,1.374-6.101,2.232
										c-0.573,0.229-1.092,0.513-1.477,0.909c-0.39,0.394-0.655,0.883-0.845,1.373c-0.378,0.991-0.468,1.978-0.592,2.803
										C85.769,393.876,85.268,394.845,85.199,394.802z"/>
								</g>
							</g>
						</g>
						<g>
							<g>
								<g>
									<path style="fill:#EB996E;" d="M82.885,392.979c-0.142-0.023-0.113-0.914,0.064-1.989c0.177-1.075,0.436-1.927,0.578-1.904
										c0.142,0.023,0.113,0.914-0.064,1.989C83.286,392.15,83.027,393.003,82.885,392.979z"/>
								</g>
							</g>
						</g>
					</g>
					<g>
						<g>
							<path style="fill:#FAFAFA;" d="M82.614,370.336c0,1.166,0.945,2.112,2.112,2.112c1.166,0,2.112-0.945,2.112-2.112
								c0-1.166-0.945-2.112-2.112-2.112C83.559,368.225,82.614,369.17,82.614,370.336z"/>
						</g>
					</g>
				</g>
				<g>
					<g>
						<g>
							<path style="fill:#EB996E;" d="M123.935,403.201c0.016-0.017,0.23,0.154,0.616,0.489c0.436,0.39,0.985,0.881,1.652,1.479
								c1.468,1.357,3.456,3.194,5.82,5.38l0.077,0.072l-0.009,0.111c-0.262,3.367-0.571,7.327-0.901,11.562
								c-0.456,6.203-0.813,11.822-1.012,15.891c-0.089,1.97-0.162,3.596-0.217,4.82c-0.042,1.138-0.083,1.769-0.119,1.769
								c-0.036,0-0.064-0.63-0.084-1.771c-0.015-1.141-0.007-2.792,0.051-4.831c0.105-4.079,0.404-9.707,0.861-15.915
								c0.313-4.252,0.653-8.223,0.976-11.564l0.069,0.182c-2.312-2.24-4.256-4.124-5.692-5.515
								c-0.634-0.634-1.154-1.155-1.568-1.568C124.101,403.422,123.919,403.219,123.935,403.201z"/>
						</g>
					</g>
				</g>
			</g>
		</g>
	</g>
</g>
<g id="Character_1">
	<g>
		<g>
			<g>
				<path style="fill:#E0E0E0;" d="M291.058,148.935l-35.544-17.63c-11.918-25.979-38.139-44.032-68.592-44.032
					c-41.668,0-75.446,33.779-75.446,75.447s33.778,75.447,75.446,75.447c40.617,0,73.722-32.099,75.367-72.312L291.058,148.935z"/>
			</g>
		</g>
		<g>
			<g>
				<g>
					<g>
						<path style="fill:#263238;" d="M255.133,80.662c0,1.083-0.878,1.96-1.96,1.96c-1.083,0-1.96-0.878-1.96-1.96
							c0-1.082,0.878-1.96,1.96-1.96C254.255,78.701,255.133,79.579,255.133,80.662z"/>
					</g>
				</g>
				<g>
					<g>
						<path style="fill:#263238;" d="M262.977,80.662c0,1.083-0.878,1.96-1.96,1.96c-1.082,0-1.96-0.878-1.96-1.96
							c0-1.082,0.878-1.96,1.96-1.96C262.1,78.701,262.977,79.579,262.977,80.662z"/>
					</g>
				</g>
				<g>
					<g>
						<path style="fill:#263238;" d="M270.801,79.682c0.541,0.938,0.22,2.136-0.717,2.678c-0.938,0.541-2.136,0.22-2.678-0.717
							s-0.22-2.136,0.717-2.678C269.061,78.423,270.26,78.744,270.801,79.682z"/>
					</g>
				</g>
			</g>
			<g>
				<g>
					<g>
						<path style="fill:#263238;" d="M261.138,57.768c0-0.009,0.134-0.011,0.396-0.007c0.288,0.008,0.673,0.019,1.165,0.033
							c0.256,0.012,0.544,0.012,0.859,0.038c0.315,0.044,0.658,0.092,1.027,0.144c0.373,0.053,0.773,0.111,1.199,0.172
							c0.421,0.104,0.867,0.215,1.339,0.332c1.882,0.484,4.162,1.311,6.493,2.831c2.329,1.495,4.75,3.634,6.715,6.54
							c1.928,2.91,3.416,6.571,3.809,10.682c0.038,1.029,0.163,2.076,0.063,3.139c-0.037,0.531-0.026,1.071-0.104,1.606
							c-0.081,0.535-0.162,1.074-0.244,1.617c-0.438,2.145-1.077,4.342-2.182,6.389c-1.08,2.051-2.472,4.004-4.173,5.742
							c-1.734,1.703-3.759,3.18-6.012,4.319c-2.247,1.148-4.737,1.941-7.329,2.249c-0.642,0.127-1.299,0.127-1.954,0.166
							c-0.656,0.043-1.315,0.067-1.976,0.036c-1.322-0.054-2.648-0.22-3.958-0.5c-2.846-0.606-5.526-1.765-7.879-3.316l0.239,0.024
							c-2.731,1.096-5.41,2.171-8.026,3.221l-0.475,0.191l0.136-0.493c0.81-2.945,1.597-5.809,2.359-8.58l0.041,0.212
							c-2.252-2.993-3.688-6.411-4.283-9.804c-0.298-1.695-0.425-3.388-0.312-5.023c0.035-0.819,0.074-1.627,0.228-2.412
							c0.061-0.394,0.122-0.785,0.182-1.174c0.072-0.386,0.189-0.76,0.281-1.136c1.55-6.039,5.27-10.5,8.954-13.053
							c1.844-1.299,3.663-2.23,5.329-2.811c0.415-0.148,0.815-0.292,1.2-0.43c0.395-0.1,0.775-0.197,1.139-0.289
							c0.363-0.09,0.711-0.176,1.042-0.258c0.334-0.064,0.657-0.099,0.96-0.145c0.607-0.077,1.14-0.182,1.607-0.205
							c0.46-0.016,0.852-0.029,1.179-0.04c0.299-0.007,0.536-0.012,0.72-0.016C261.056,57.758,261.138,57.761,261.138,57.768
							s-0.082,0.018-0.243,0.033c-0.183,0.014-0.42,0.033-0.717,0.057c-0.325,0.022-0.715,0.048-1.172,0.079
							c-0.464,0.036-0.991,0.153-1.592,0.242c-2.362,0.433-5.903,1.375-9.52,4.02c-3.612,2.554-7.237,6.972-8.729,12.909
							c-0.088,0.37-0.202,0.737-0.27,1.117c-0.057,0.382-0.115,0.766-0.173,1.153c-0.148,0.771-0.182,1.564-0.213,2.369
							c-0.104,1.605,0.027,3.264,0.325,4.924c0.595,3.323,2.011,6.665,4.224,9.591l0.072,0.096l-0.032,0.117
							c-0.756,2.772-1.538,5.638-2.342,8.585l-0.339-0.302c2.614-1.053,5.292-2.131,8.022-3.23l0.126-0.051l0.114,0.075
							c2.302,1.515,4.921,2.646,7.703,3.238c1.28,0.274,2.576,0.436,3.868,0.489c0.647,0.03,1.291,0.007,1.932-0.035
							c0.641-0.038,1.284-0.036,1.911-0.161c2.534-0.299,4.968-1.072,7.167-2.192c2.205-1.11,4.189-2.552,5.889-4.215
							c1.668-1.698,3.035-3.606,4.099-5.611c1.089-2.001,1.719-4.151,2.158-6.252c0.082-0.532,0.164-1.06,0.245-1.584
							c0.078-0.525,0.069-1.054,0.108-1.575c0.103-1.043-0.016-2.071-0.049-3.081c-0.368-4.036-1.808-7.64-3.685-10.517
							c-1.914-2.873-4.282-5-6.567-6.5c-2.286-1.524-4.53-2.37-6.387-2.88c-0.466-0.124-0.908-0.242-1.323-0.352
							c-0.422-0.069-0.818-0.134-1.186-0.195c-0.366-0.06-0.706-0.116-1.018-0.168c-0.312-0.035-0.598-0.043-0.852-0.063
							c-0.489-0.036-0.872-0.064-1.159-0.084C261.273,57.792,261.139,57.777,261.138,57.768z"/>
					</g>
				</g>
			</g>
		</g>
		<g>
			<g>
				<g>
					<path style="fill:#263238;" d="M232.619,154.684c0.144,0.002,0.15,7.087,0.014,15.823c-0.136,8.739-0.363,15.819-0.507,15.816
						c-0.144-0.002-0.15-7.086-0.014-15.825C232.248,161.763,232.475,154.681,232.619,154.684z"/>
				</g>
			</g>
		</g>
		<g>
			<g>
				<g>
					<g>
						<path style="fill:#263238;" d="M203.548,117.227c0.018,0.002,0.007,0.182-0.031,0.523c-0.027,0.344-0.114,0.842-0.251,1.482
							c-0.282,1.273-0.889,3.096-2.104,5.109c-1.229,1.989-3.109,4.164-5.767,5.81c-2.637,1.665-6.07,2.635-9.667,2.544
							c-3.598-0.113-6.971-1.276-9.51-3.088c-2.561-1.794-4.315-4.073-5.429-6.128c-1.1-2.079-1.601-3.932-1.811-5.22
							c-0.1-0.646-0.159-1.149-0.166-1.494c-0.018-0.343-0.019-0.523-0.001-0.524c0.056-0.005,0.095,0.716,0.366,1.979
							c0.268,1.261,0.816,3.066,1.935,5.081c1.132,1.992,2.876,4.19,5.379,5.911c2.479,1.738,5.754,2.852,9.251,2.962
							c3.497,0.087,6.829-0.839,9.402-2.433c2.597-1.577,4.462-3.672,5.705-5.596c1.23-1.948,1.881-3.72,2.22-4.963
							C203.412,117.936,203.492,117.219,203.548,117.227z"/>
					</g>
				</g>
			</g>
			<g>
				<g>
					<g>
						<path style="fill:#263238;" d="M142.5,156.819c0.144,0,0.264,6.908,0.268,15.429c0.004,8.523-0.109,15.43-0.253,15.43
							c-0.144,0-0.264-6.907-0.268-15.43C142.243,163.727,142.356,156.819,142.5,156.819z"/>
					</g>
				</g>
			</g>
			<g>
				<g>
					<g>
						<path style="fill:none;stroke:#FFFFFF;stroke-width:0.05;stroke-miterlimit:10;" d="M142.398,225.807"/>
					</g>
				</g>
			</g>
			<g>
				<g>
					<g>
						<path style="fill:#263238;" d="M172.027,114.458l29.703,0.013c0,0,26.854,9.542,35.584,16.235
							c8.731,6.693,22.118,53.839,22.118,53.839l-26.82-0.792l-2.013,40.494c-27.472,19.563-60.437,18.134-85.902,1.005
							l-1.988-38.332c0,0-14.791-0.435-22.341-0.657s-7.902-2.299-7.902-2.299s17.17-45.108,22.409-53.839
							C139.439,122.515,165.985,115.72,172.027,114.458"/>
					</g>
				</g>
				<g>
					<g>
						<g>
							<path style="fill:#FAFAFA;" d="M243.473,141.503c0,0-0.335,0.264-1.062,0.617c-0.721,0.357-1.861,0.778-3.395,0.937
								c-1.528,0.172-3.436,0.071-5.556-0.446c-2.131-0.49-4.437-1.455-6.896-2.634c-2.469-1.151-5.135-2.54-8.212-3.358
								c-3.068-0.827-6.553-0.784-10.013,0.124c-3.471,0.883-6.91,2.496-10.339,4.374c-3.429,1.886-6.908,4.025-10.732,5.737
								c-3.808,1.702-7.882,2.828-11.874,2.629c-3.985-0.168-7.676-1.389-10.993-2.812c-3.332-1.432-6.334-3.106-9.194-4.548
								c-2.854-1.454-5.567-2.699-8.151-3.539c-5.166-1.723-9.727-1.608-12.649-0.84c-1.472,0.368-2.562,0.837-3.277,1.195
								c-0.362,0.171-0.62,0.336-0.805,0.427c-0.182,0.097-0.277,0.143-0.282,0.135c-0.005-0.008,0.081-0.069,0.255-0.181
								c0.176-0.106,0.427-0.288,0.784-0.475c0.704-0.39,1.793-0.895,3.275-1.298c2.941-0.839,7.57-1.013,12.812,0.686
								c2.618,0.826,5.362,2.063,8.232,3.503c2.876,1.429,5.881,3.086,9.188,4.492c3.294,1.4,6.935,2.587,10.825,2.744
								c3.892,0.188,7.874-0.911,11.642-2.595c3.783-1.693,7.25-3.819,10.699-5.709c3.45-1.881,6.93-3.505,10.466-4.392
								c3.521-0.913,7.108-0.942,10.241-0.076c3.136,0.855,5.805,2.274,8.26,3.443c2.447,1.199,4.71,2.173,6.807,2.683
								c2.086,0.537,3.961,0.665,5.467,0.527c1.511-0.126,2.644-0.508,3.371-0.831C243.1,141.707,243.458,141.476,243.473,141.503z"
								/>
						</g>
					</g>
				</g>
				<g>
					<g>
						<g>
							<path style="fill:#FAFAFA;" d="M253.224,164.096c-0.019,0.032-0.424-0.256-1.277-0.637c-0.849-0.377-2.155-0.87-3.917-1.067
								c-1.753-0.22-3.952-0.128-6.392,0.473c-2.444,0.594-5.081,1.785-7.827,3.371c-2.76,1.571-5.622,3.573-8.909,5.406
								c-3.268,1.791-7.08,3.514-11.386,3.609c-4.301,0.159-8.639-1.344-12.813-3.193c-4.199-1.832-8.43-4.059-13.138-5.146
								c-4.714-1.058-9.512-0.782-13.997-0.019c-4.505,0.754-8.753,1.985-12.826,3.058c-4.07,1.082-7.985,2.017-11.724,2.459
								c-3.733,0.444-7.281,0.419-10.436-0.197c-6.337-1.237-10.772-4.521-12.965-7.315c-1.15-1.384-1.732-2.668-2.14-3.509
								c-0.154-0.421-0.276-0.754-0.368-1.005c-0.08-0.227-0.117-0.344-0.108-0.347c0.098-0.057,0.509,1.976,2.772,4.733
								c2.214,2.72,6.619,5.907,12.878,7.082c3.109,0.583,6.618,0.588,10.314,0.13c3.703-0.456,7.592-1.4,11.653-2.494
								c4.063-1.084,8.323-2.331,12.865-3.098c4.52-0.775,9.388-1.064,14.197,0.014c4.8,1.111,9.051,3.36,13.229,5.187
								c4.154,1.849,8.41,3.324,12.594,3.18c4.184-0.076,7.939-1.746,11.191-3.508c3.267-1.8,6.146-3.787,8.934-5.348
								c2.775-1.576,5.452-2.758,7.94-3.334c2.481-0.583,4.712-0.645,6.486-0.391c1.783,0.231,3.095,0.763,3.936,1.174
								C252.838,163.78,253.224,164.096,253.224,164.096z"/>
						</g>
					</g>
				</g>
				<g>
					<g>
						<g>
							<path style="fill:#FAFAFA;" d="M231.724,201.168c0,0-0.266,0.194-0.849,0.408c-0.578,0.217-1.485,0.434-2.668,0.422
								c-1.18-0.012-2.622-0.267-4.186-0.865c-1.569-0.588-3.229-1.519-5.078-2.468c-1.843-0.956-3.961-1.816-6.375-2.154
								c-2.401-0.366-5.029-0.313-7.733,0.116c-5.449,0.814-11.019,3.323-16.979,5.569c-2.988,1.12-5.991,2.04-8.958,2.604
								c-2.963,0.578-5.867,0.875-8.637,0.962c-5.55,0.154-10.53-0.601-14.584-1.635c-4.064-1.027-7.202-2.36-9.3-3.385
								c-1.066-0.482-1.845-0.954-2.386-1.245c-0.244-0.14-0.444-0.254-0.607-0.347c-0.135-0.081-0.202-0.126-0.198-0.134
								c0.004-0.008,0.08,0.022,0.224,0.087c0.17,0.081,0.377,0.18,0.631,0.301c0.556,0.261,1.347,0.702,2.423,1.154
								c2.116,0.964,5.257,2.237,9.304,3.211c4.037,0.981,8.981,1.691,14.48,1.513c2.745-0.1,5.62-0.403,8.552-0.983
								c2.937-0.566,5.901-1.477,8.876-2.592c5.93-2.232,11.55-4.753,17.086-5.555c2.746-0.422,5.423-0.461,7.874-0.068
								c2.46,0.362,4.636,1.27,6.477,2.253c1.85,0.977,3.482,1.921,5.015,2.524c1.525,0.613,2.932,0.892,4.085,0.934
								C230.55,201.875,231.71,201.081,231.724,201.168z"/>
						</g>
					</g>
				</g>
				<g>
					<g>
						<g>
							<path style="fill:#FAFAFA;" d="M230.866,222.137c-0.055,0.049-0.799-1.067-2.639-2.56c-1.835-1.442-4.933-3.239-9.159-3.628
								c-2.092-0.214-4.435,0.008-6.77,0.805c-2.326,0.844-4.599,2.259-6.781,4.005c-2.191,1.742-4.331,3.778-6.713,5.724
								c-2.372,1.935-5.082,3.773-8.253,4.727c-3.167,0.944-6.444,0.992-9.495,0.597c-3.064-0.386-5.938-1.169-8.632-1.992
								c-5.392-1.646-10.082-3.613-14.162-4.759c-4.072-1.178-7.552-1.422-9.887-1.032c-2.342,0.356-3.532,0.989-3.558,0.91
								c-0.004-0.008,0.07-0.045,0.217-0.11c0.177-0.074,0.394-0.165,0.659-0.277c0.287-0.131,0.654-0.261,1.102-0.371
								c0.442-0.133,0.955-0.271,1.549-0.352c2.356-0.458,5.9-0.265,10.016,0.877c4.131,1.113,8.825,3.042,14.205,4.656
								c2.685,0.806,5.537,1.571,8.554,1.945c3.006,0.382,6.206,0.327,9.282-0.59c3.076-0.925,5.726-2.712,8.082-4.625
								c2.364-1.921,4.515-3.954,6.737-5.704c2.213-1.753,4.543-3.188,6.936-4.036c2.41-0.803,4.813-1.006,6.948-0.764
								c4.312,0.446,7.432,2.328,9.251,3.837C230.179,220.982,230.866,222.137,230.866,222.137z"/>
						</g>
					</g>
				</g>
				<g style="opacity:0.2;">
					<g>
						<g>
							<path d="M141.775,218.182c6.029,0.469,11.399-3.578,15.874-7.645c4.475-4.067,9.154-8.598,15.14-9.457
								c6.273-0.9,12.649,2.498,18.863,1.254c2.797-0.56,5.406-2.044,8.256-2.155c4.698-0.184,8.637,3.31,12.018,6.577
								c4.396,4.249,8.792,8.498,13.187,12.747c1.346,1.301,3.912,3.249,5.599,2.438l0.327-6.574
								c-2.107-11.827-4.395-23.988-13.505-31.819c-6.762-5.813-15.963-7.811-24.823-8.82c-10.734-1.222-22.348-1.082-31.358,4.877
								c-6.008,3.974-10.248,10.202-13.026,16.848s-4.218,13.762-5.642,20.823"/>
						</g>
					</g>
				</g>
			</g>
			<g>
				<g>
					<g>
						<path style="fill:#EB996E;" d="M257.239,184.48c0.26,1.559,4.585,26.54,3.805,31.478c-0.78,4.938-2.079,11.435-7.797,13.774
							c-5.717,2.339-14.034-0.78-18.712-8.836c-4.678-8.057-24.949-36.384-24.949-36.384l-15.074-1.819v-25.209l28.848,18.363
							l13.254,12.028l-1.013-4.034L257.239,184.48z"/>
					</g>
				</g>
				<g>
					<g>
						<path style="fill:#455A64;" d="M201.017,191.903H178.26c-1.868,0-3.382-1.514-3.382-3.382v-41.056
							c0-1.868,1.514-3.382,3.382-3.382h22.757c1.868,0,3.382,1.514,3.382,3.382v41.056
							C204.399,190.389,202.885,191.903,201.017,191.903z"/>
					</g>
				</g>
				<g>
					<g>
						<g>
							<path style="fill:#E07646;" d="M222.091,175.205c0.096-0.107,6.366,5.313,14.004,12.105
								c7.64,6.794,13.755,12.388,13.659,12.495c-0.095,0.107-6.365-5.312-14.005-12.106
								C228.111,180.907,221.995,175.312,222.091,175.205z"/>
						</g>
					</g>
				</g>
				<g>
					<g>
						<g>
							<path style="fill:#EB996E;" d="M116.389,185.894c0,0-3.598,31.055-3.598,34.592c0,3.538,3.184,12.028,12.028,12.736
								c8.844,0.707,20.165-19.104,20.165-19.104l18.396-27.948l-8.137-15.212l-15.908,15.862L116.389,185.894z"/>
						</g>
					</g>
					<g>
						<g>
							<path style="fill:#EB996E;" d="M198.525,162.773l-23.824-0.66l-19.458,8.844l8.137,15.212l14.237-2.075
								c0,0,8.33-1.356,8.844-1.868c0.959-0.955,1.794-3.908,2.368-6.471c0.584-2.611,0.292-5.339-0.839-7.764l-0.536-0.455
								c0,0,7.841-1.638,9.142-2.212C199.72,163.948,198.525,162.773,198.525,162.773z"/>
						</g>
					</g>
					<g>
						<g>
							<g>
								<path style="fill:#E07646;" d="M155.244,170.958c0.026,0.025-0.305,0.425-0.927,1.129c-0.62,0.705-1.541,1.704-2.693,2.925
									c-2.303,2.443-5.564,5.74-9.205,9.339c-3.601,3.57-6.858,6.798-9.309,9.227c-1.133,1.132-2.077,2.075-2.81,2.807
									c-0.667,0.66-1.048,1.014-1.074,0.989c-0.026-0.025,0.305-0.425,0.927-1.129c0.62-0.705,1.541-1.704,2.693-2.925
									c2.303-2.443,5.565-5.741,9.206-9.34c3.6-3.568,6.856-6.796,9.307-9.225c1.133-1.132,2.078-2.076,2.81-2.807
									C154.837,171.287,155.218,170.933,155.244,170.958z"/>
							</g>
						</g>
					</g>
					<g>
						<g>
							<g>
								<path style="fill:#E07646;" d="M178.72,169.844c-0.094-0.087,1.703-1.57,4.45-2.102c2.742-0.559,4.969,0.125,4.916,0.242
									c-0.023,0.161-2.2-0.268-4.814,0.269C180.651,168.755,178.803,169.983,178.72,169.844z"/>
							</g>
						</g>
					</g>
					<g>
						<g>
							<g>
								<path style="fill:#E07646;" d="M189.432,172.501c-0.05,0.153-1.911-0.586-4.286-0.352c-2.379,0.196-4.077,1.257-4.153,1.115
									c-0.099-0.087,1.574-1.419,4.106-1.634C187.628,171.387,189.514,172.398,189.432,172.501z"/>
							</g>
						</g>
					</g>
					<g>
						<g>
							<g>
								<path style="fill:#E07646;" d="M187.933,176.887c-0.054,0.061-0.316-0.114-0.765-0.276c-0.447-0.166-1.102-0.284-1.819-0.19
									c-0.716,0.099-1.317,0.387-1.704,0.665c-0.39,0.275-0.597,0.514-0.665,0.469c-0.053-0.03,0.049-0.357,0.426-0.748
									c0.37-0.391,1.049-0.789,1.874-0.901c0.825-0.11,1.585,0.095,2.045,0.373C187.791,176.555,187.976,176.844,187.933,176.887z
									"/>
							</g>
						</g>
					</g>
				</g>
			</g>
			<g>
				<g>
					<g>
						<g>
							<g>
								<g>
									<g>
										<g>
											<g>
												<g>
													<g>
														<path style="fill:#EB996E;" d="M187.757,129.412L187.757,129.412c7.897-0.456,14.044-7.032,13.972-14.942
															c-0.043-4.751-0.099-8.824-0.099-8.824s12.047-1.873,12.196-13.918c0.149-12.045-1.939-39.702-1.939-39.702l0,0
															c-13.943-5.992-30.036-3.969-42.063,5.287l-1.785,1.374l4.073,56.979C172.691,123.756,179.661,129.88,187.757,129.412
															z"/>
													</g>
												</g>
											</g>
										</g>
									</g>
								</g>
								<g>
									<g>
										<g>
											<g>
												<g>
													<g>
														<path style="fill:#E07646;" d="M201.651,105.473c0,0-7.612,0.619-15.703-4.463c0,0,3.712,8.668,15.73,7.583
															L201.651,105.473z"/>
													</g>
												</g>
											</g>
										</g>
									</g>
								</g>
							</g>
						</g>
					</g>
					<g>
						<g>
							<g>
								<g>
									<g>
										<g>
											<g>
												<path style="fill:#EB996E;" d="M169.524,71.164c-0.205-0.089-8.276-2.448-8.013,5.787
													c0.263,8.234,8.476,6.272,8.483,6.035C170,82.749,169.524,71.164,169.524,71.164z"/>
											</g>
										</g>
									</g>
								</g>
							</g>
						</g>
						<g>
							<g>
								<g>
									<g>
										<g>
											<g>
												<g>
													<path style="fill:#E07646;" d="M167.378,79.947c-0.037-0.025-0.14,0.105-0.379,0.224
														c-0.233,0.116-0.637,0.203-1.072,0.056c-0.88-0.291-1.657-1.649-1.744-3.132c-0.045-0.749,0.089-1.468,0.336-2.067
														c0.232-0.61,0.608-1.044,1.044-1.136c0.432-0.115,0.751,0.138,0.859,0.366c0.118,0.227,0.071,0.393,0.115,0.405
														c0.024,0.02,0.172-0.143,0.095-0.481c-0.039-0.162-0.142-0.354-0.34-0.506c-0.203-0.155-0.496-0.227-0.8-0.184
														c-0.633,0.064-1.186,0.667-1.458,1.325c-0.306,0.662-0.474,1.47-0.424,2.311c0.106,1.657,1.005,3.183,2.206,3.489
														c0.584,0.132,1.062-0.057,1.305-0.26C167.37,80.146,167.408,79.961,167.378,79.947z"/>
												</g>
											</g>
										</g>
									</g>
								</g>
							</g>
						</g>
					</g>
					<g>
						<g>
							<g>
								<g>
									<g>
										<g>
											<g>
												<g>
													<g>
														<g>
															<g>
																<g>
																	<path style="fill:#263238;" d="M207.938,72.339c0.032,0.908-0.71,1.684-1.659,1.735
																		c-0.946,0.051-1.741-0.642-1.773-1.551c-0.032-0.908,0.71-1.686,1.657-1.737
																		C207.111,70.736,207.906,71.431,207.938,72.339z"/>
																</g>
															</g>
														</g>
													</g>
												</g>
											</g>
											<g>
												<g>
													<g>
														<g>
															<g>
																<g>
																	<g>
																		<path style="fill:#263238;" d="M209.608,68.97c-0.213,0.224-1.516-0.74-3.367-0.735
																			c-1.849-0.021-3.207,0.931-3.408,0.704c-0.098-0.1,0.119-0.505,0.71-0.936c0.582-0.429,1.575-0.846,2.728-0.841
																			c1.153,0.006,2.123,0.431,2.68,0.865C209.52,68.464,209.712,68.87,209.608,68.97z"/>
																	</g>
																</g>
															</g>
														</g>
													</g>
												</g>
											</g>
										</g>
										<g>
											<g>
												<g>
													<g>
														<g>
															<g>
																<g>
																	<path style="fill:#263238;" d="M189.389,72.551c0.032,0.908-0.711,1.684-1.659,1.735
																		c-0.946,0.051-1.741-0.643-1.773-1.551c-0.032-0.908,0.711-1.686,1.657-1.736
																		C188.562,70.948,189.356,71.643,189.389,72.551z"/>
																</g>
															</g>
														</g>
													</g>
												</g>
											</g>
											<g>
												<g>
													<g>
														<g>
															<g>
																<g>
																	<g>
																		<path style="fill:#263238;" d="M191.414,69.316c-0.214,0.224-1.519-0.74-3.368-0.735
																			c-1.849-0.022-3.207,0.931-3.408,0.704c-0.098-0.1,0.117-0.505,0.711-0.936c0.582-0.429,1.575-0.846,2.728-0.841
																			c1.153,0.006,2.123,0.431,2.681,0.865C191.324,68.81,191.518,69.215,191.414,69.316z"/>
																	</g>
																</g>
															</g>
														</g>
													</g>
												</g>
											</g>
										</g>
										<g>
											<g>
												<g>
													<g>
														<g>
															<g>
																<g>
																	<path style="fill:#263238;" d="M198.131,83.043c-0.009-0.105,1.142-0.304,3.006-0.542
																		c0.473-0.049,0.92-0.143,1-0.465c0.111-0.341-0.086-0.851-0.316-1.401c-0.444-1.144-0.909-2.343-1.398-3.599
																		c-1.941-5.124-3.346-9.338-3.139-9.414c0.207-0.076,1.948,4.015,3.889,9.139c0.467,1.264,0.914,2.468,1.339,3.621
																		c0.179,0.537,0.487,1.146,0.245,1.855c-0.127,0.353-0.474,0.61-0.777,0.691c-0.303,0.092-0.569,0.098-0.803,0.112
																		C199.302,83.14,198.138,83.148,198.131,83.043z"/>
																</g>
															</g>
														</g>
													</g>
												</g>
											</g>
										</g>
										<g>
											<g>
												<g>
													<g>
														<g>
															<g>
																<g>
																	<path style="fill:#263238;" d="M192.684,84.323c0.301-0.017,0.305,1.992,2.024,3.418
																		c1.717,1.431,3.858,1.205,3.874,1.486c0.028,0.126-0.477,0.39-1.381,0.415c-0.887,0.031-2.182-0.254-3.234-1.127
																		c-1.049-0.875-1.5-2.041-1.569-2.866C192.322,84.809,192.546,84.312,192.684,84.323z"/>
																</g>
															</g>
														</g>
													</g>
												</g>
											</g>
										</g>
									</g>
								</g>
							</g>
							<g>
								<g>
									<g>
										<g>
											<g>
												<g>
													<path style="fill:#E8505B;" d="M191.891,62.062c-0.183,0.503-2.031,0.265-4.202,0.527
														c-2.177,0.218-3.928,0.854-4.216,0.402c-0.129-0.216,0.177-0.689,0.885-1.177c0.702-0.486,1.821-0.949,3.125-1.094
														c1.304-0.142,2.497,0.064,3.288,0.386C191.568,61.428,191.97,61.823,191.891,62.062z"/>
												</g>
											</g>
										</g>
									</g>
								</g>
							</g>
							<g>
								<g>
									<g>
										<g>
											<g>
												<g>
													<path style="fill:#E8505B;" d="M208.927,63.613c-0.326,0.42-1.601-0.016-3.134-0.036
														c-1.532-0.074-2.831,0.282-3.13-0.157c-0.131-0.214,0.073-0.635,0.641-1.033c0.559-0.397,1.494-0.721,2.548-0.689
														c1.053,0.034,1.967,0.414,2.5,0.845C208.893,62.975,209.071,63.409,208.927,63.613z"/>
												</g>
											</g>
										</g>
									</g>
								</g>
							</g>
						</g>
					</g>
				</g>
				<g>
					<g>
						<g>
							<g>
								<path style="fill:#E8505B;" d="M217.755,44.423c0.129-1.493-0.427-3.095-1.642-3.973c-1.215-0.877-3.099-0.822-4.086,0.306
									c0.566-2.011-1.079-4.331-3.164-4.463c-1.964-0.125-3.64,1.359-5.538,1.88c-1.853,0.508-3.841,0.069-5.624-0.649
									c-1.782-0.718-3.448-1.708-5.253-2.368c-3.764-1.375-8.068-1.202-11.71,0.47c-3.642,1.672-6.578,4.823-7.989,8.574
									c-2.634-0.823-5.627,0.514-7.252,2.745c-1.624,2.231-2.041,5.162-1.718,7.902c0.218,1.852,0.754,3.642,1.377,5.405
									c-0.001,0.155-0.016,0.307-0.013,0.462c0.125,6.623,0.873,14.401,3.699,14.444c4.925,0.075,3.751-9.203,3.751-9.203
									c6.044-2.335,3.792-11.391,5.304-12.765c1.511-1.374,4.673-4.566,17.327,1.902c4.914,2.511,11.447,2.433,15.014,1.624
									c0.105-0.023,0.211-0.039,0.315-0.064c0.022-0.005,0.051-0.009,0.073-0.015c0.039-0.01,0.066-0.031,0.105-0.042
									c1.137-0.296,2.233-0.736,3.245-1.377c1.146-0.725,2.188-1.707,2.675-2.973c0.486-1.266,0.303-2.847-0.69-3.77
									C216.895,47.302,217.626,45.916,217.755,44.423z"/>
							</g>
						</g>
					</g>
				</g>
			</g>
		</g>
	</g>
</g>
<g id="Device">
	<g>
		<g>
			<g>
				<g>
					<g>
						<g>
							<path style="fill:#263238;" d="M464.865,444.205l-129.717-0.6c-15.601-0.071-28.192-12.774-28.126-28.375l1.375-325.202
								c0.066-15.61,12.777-28.209,28.387-28.137l129.717,0.599c15.601,0.072,28.191,12.775,28.125,28.376l-1.375,325.203
								C493.185,431.678,480.475,444.277,464.865,444.205z"/>
						</g>
						<g>
							<path style="fill:#FAFAFA;" d="M466.316,73.713l-25.15-0.116c-3.372-0.015-6.119,2.831-6.133,6.356l-0.02,4.562
								c-0.014,3.526-2.761,6.372-6.133,6.356l-49.023-0.227c-3.372-0.015-6.095-2.886-6.08-6.412l0.02-4.562
								c0.015-3.526-2.708-6.397-6.081-6.412l-8.845-0.041l-22.012-0.101c-10.932-0.05-19.834,8.773-19.88,19.706l-1.342,317.421
								c-0.046,10.927,8.771,19.823,19.698,19.874l129.458,0.597c10.931,0.051,19.833-8.773,19.88-19.705l1.342-317.422
								C486.059,82.659,477.242,73.764,466.316,73.713z"/>
						</g>
					</g>
				</g>
			</g>
		</g>
		<g>
			<path style="fill:#E8505B;" d="M347.319,123.902c0,3.436-2.785,6.221-6.221,6.221c-3.436,0-6.221-2.785-6.221-6.221
				c0-3.436,2.785-6.221,6.221-6.221C344.533,117.681,347.319,120.466,347.319,123.902z"/>
			<g>
				<path style="fill:#E8505B;" d="M358.924,119.225h104.388c3.19,0,5.776,2.586,5.776,5.776v15.814c0,3.19-2.586,5.777-5.776,5.777
					h-93.496c-3.19,0-5.776-2.586-5.776-5.777v-16.986L358.924,119.225z"/>
				<g>
					<g>
						<g>
							<g>
								<path style="fill:#FFFFFF;" d="M452.351,129.038c0,0.144-16.028,0.26-35.795,0.26c-19.774,0-35.799-0.117-35.799-0.26
									s16.025-0.26,35.799-0.26C436.323,128.778,452.351,128.895,452.351,129.038z"/>
							</g>
						</g>
					</g>
					<g>
						<g>
							<g>
								<path style="fill:#FFFFFF;" d="M452.351,135.482c0,0.144-16.028,0.26-35.795,0.26c-19.774,0-35.799-0.117-35.799-0.26
									c0-0.144,16.025-0.26,35.799-0.26C436.323,135.222,452.351,135.338,452.351,135.482z"/>
							</g>
						</g>
					</g>
				</g>
			</g>
		</g>
		<g>
			<path style="fill:#E8505B;" d="M347.319,276.962c0,3.436-2.785,6.221-6.221,6.221c-3.436,0-6.221-2.785-6.221-6.221
				c0-3.436,2.785-6.221,6.221-6.221C344.533,270.741,347.319,273.526,347.319,276.962z"/>
			<g>
				<path style="fill:#E8505B;" d="M358.924,272.284h104.388c3.19,0,5.776,2.586,5.776,5.776v15.814c0,3.19-2.586,5.776-5.776,5.776
					h-93.496c-3.19,0-5.776-2.586-5.776-5.776v-16.986L358.924,272.284z"/>
				<g>
					<g>
						<g>
							<g>
								<path style="fill:#FFFFFF;" d="M452.351,282.098c0,0.144-16.028,0.26-35.795,0.26c-19.774,0-35.799-0.117-35.799-0.26
									s16.025-0.26,35.799-0.26C436.323,281.837,452.351,281.954,452.351,282.098z"/>
							</g>
						</g>
					</g>
					<g>
						<g>
							<g>
								<path style="fill:#FFFFFF;" d="M452.351,288.542c0,0.144-16.028,0.26-35.795,0.26c-19.774,0-35.799-0.116-35.799-0.26
									c0-0.144,16.025-0.26,35.799-0.26C436.323,288.281,452.351,288.398,452.351,288.542z"/>
							</g>
						</g>
					</g>
				</g>
			</g>
		</g>
		<g>
			<circle style="fill:#455A64;" cx="456.565" cy="171.721" r="6.114"/>
			<g>
				<path style="fill:#455A64;" d="M441.823,163.138h-97.771c-2.988,0-5.41,2.422-5.41,5.41v14.811c0,2.988,2.422,5.41,5.41,5.41
					h87.569c2.988,0,5.41-2.422,5.41-5.41v-15.909L441.823,163.138z"/>
				<g>
					<g>
						<g>
							<g>
								<path style="fill:#FFFFFF;" d="M354.319,172.33c0-0.144,15.012-0.26,33.526-0.26c18.521,0,33.53,0.117,33.53,0.26
									c0,0.144-15.009,0.26-33.53,0.26C369.331,172.59,354.319,172.473,354.319,172.33z"/>
							</g>
						</g>
					</g>
					<g>
						<g>
							<g>
								<path style="fill:#FFFFFF;" d="M354.319,178.365c0-0.144,15.012-0.26,33.526-0.26c18.521,0,33.53,0.117,33.53,0.26
									s-15.009,0.26-33.53,0.26C369.331,178.626,354.319,178.509,354.319,178.365z"/>
							</g>
						</g>
					</g>
				</g>
			</g>
		</g>
		<g>
			<path style="fill:#263238;" d="M334.877,214.808c0,3.436,2.785,6.221,6.221,6.221c3.436,0,6.221-2.785,6.221-6.221
				c0-3.436-2.785-6.221-6.221-6.221C337.662,208.587,334.877,211.373,334.877,214.808z"/>
			<g>
				<path style="fill:#263238;" d="M362.804,205.799h97.771c2.988,0,5.41,2.422,5.41,5.41v14.811c0,2.988-2.422,5.41-5.41,5.41
					h-87.569c-2.988,0-5.41-2.422-5.41-5.41v-15.909L362.804,205.799z"/>
				<g>
					<g>
						<g>
							<g>
								<path style="fill:#FFFFFF;" d="M450.309,214.99c0,0.144-15.012,0.26-33.526,0.26c-18.521,0-33.53-0.117-33.53-0.26
									c0-0.144,15.009-0.26,33.53-0.26C435.297,214.73,450.309,214.846,450.309,214.99z"/>
							</g>
						</g>
					</g>
					<g>
						<g>
							<g>
								<path style="fill:#FFFFFF;" d="M450.309,221.025c0,0.144-15.012,0.26-33.526,0.26c-18.521,0-33.53-0.117-33.53-0.26
									c0-0.144,15.009-0.26,33.53-0.26C435.297,220.765,450.309,220.882,450.309,221.025z"/>
							</g>
						</g>
					</g>
				</g>
			</g>
			<g>
				<g>
					<g>
						<path style="fill:#263238;" d="M458.113,260.077h-23.591c-2.205,0-3.993-1.788-3.993-3.993v-8.527
							c0-2.205,1.788-3.993,3.993-3.993h23.591c2.205,0,3.993,1.788,3.993,3.993v8.527
							C462.106,258.289,460.318,260.077,458.113,260.077z"/>
					</g>
				</g>
				<g>
					<g>
						<g>
							<path style="fill:#FFFFFF;" d="M456.482,251.82c0,0.144-4.149,0.26-9.267,0.26c-5.119,0-9.268-0.117-9.268-0.26
								c0-0.144,4.149-0.26,9.268-0.26C452.333,251.56,456.482,251.677,456.482,251.82z"/>
						</g>
					</g>
				</g>
			</g>
		</g>
		<g>
			<g>
				<g>
					<rect x="327.587" y="353.337" style="fill:#E0E0E0;" width="15.462" height="15.462"/>
				</g>
			</g>
			<g>
				<g>
					<rect x="345.979" y="353.337" style="fill:#E0E0E0;" width="15.462" height="15.462"/>
				</g>
			</g>
			<g>
				<g>
					<rect x="364.371" y="353.337" style="fill:#E0E0E0;" width="15.462" height="15.462"/>
				</g>
			</g>
			<g>
				<g>
					<rect x="382.763" y="353.337" style="fill:#E0E0E0;" width="15.462" height="15.462"/>
				</g>
			</g>
			<g>
				<g>
					<rect x="401.155" y="353.337" style="fill:#E0E0E0;" width="15.462" height="15.462"/>
				</g>
			</g>
			<g>
				<g>
					<rect x="327.587" y="391.481" style="fill:#E0E0E0;" width="16.161" height="16.161"/>
				</g>
			</g>
			<g>
				<g>
					<rect x="346.811" y="391.522" style="fill:#E0E0E0;" width="77.969" height="16.161"/>
				</g>
			</g>
			<g>
				<g>
					<g>
						<path style="fill:#263238;" d="M471.981,348.845c0,0-0.015-0.402-0.023-1.171c-0.006-0.78-0.016-1.918-0.028-3.414
							c-0.015-3.007-0.037-7.441-0.066-13.215l0.117,0.117c-26.141,0.026-81.016,0.08-144.386,0.143h-0.008l0.26-0.26
							c-0.001,6.098-0.001,12.117-0.002,17.8l-0.259-0.259c40.625,0.044,76.685,0.084,102.605,0.112
							c12.969,0.032,23.398,0.058,30.602,0.076c3.594,0.016,6.38,0.027,8.284,0.036c0.939,0.008,1.657,0.013,2.157,0.017
							C471.723,348.833,471.981,348.845,471.981,348.845s-0.234,0.012-0.711,0.018c-0.492,0.004-1.2,0.01-2.124,0.017
							c-1.891,0.008-4.657,0.02-8.226,0.036c-7.19,0.018-17.598,0.044-30.542,0.076c-25.967,0.028-62.093,0.068-102.792,0.112
							l-0.259,0v-0.259c-0.001-5.684-0.001-11.703-0.002-17.8l0-0.26h0.261h0.008c63.369,0.063,118.245,0.117,144.386,0.143l0.117,0
							l-0.001,0.117c-0.029,5.804-0.051,10.261-0.066,13.284c-0.012,1.484-0.021,2.613-0.028,3.387
							C471.996,348.472,471.981,348.845,471.981,348.845z"/>
					</g>
				</g>
			</g>
			<g>
				<g>
					<g>
						<path style="fill:#E8505B;" d="M461.936,341.557h-0.736c-0.818,0-1.482-0.664-1.482-1.482v-4.388
							c0-0.819,0.664-1.482,1.482-1.482h0.736c0.819,0,1.482,0.664,1.482,1.482v4.388
							C463.418,340.893,462.754,341.557,461.936,341.557z"/>
					</g>
				</g>
				<g>
					<g>
						<g>
							<path style="fill:#E8505B;" d="M466.05,340.104c0,0.055-0.434,0.106-1.18,0.148l0.147-0.136
								c-0.042,0.62-0.199,1.451-0.748,2.288c-0.275,0.411-0.671,0.807-1.185,1.068c-0.515,0.266-1.121,0.353-1.722,0.328
								c-1.181-0.021-2.188-0.734-2.728-1.497c-0.551-0.779-0.799-1.554-0.908-2.169l0.154,0.128
								c-0.862-0.044-1.361-0.098-1.361-0.157c0-0.059,0.5-0.113,1.361-0.157l0.116-0.006l0.038,0.134
								c0.155,0.544,0.446,1.271,0.969,1.946c0.524,0.665,1.363,1.237,2.385,1.259c0.524,0.021,1.043-0.048,1.472-0.261
								c0.431-0.209,0.775-0.529,1.033-0.88c0.515-0.709,0.729-1.493,0.828-2.046l0.026-0.143l0.122,0.007
								C465.616,339.999,466.05,340.049,466.05,340.104z"/>
						</g>
					</g>
				</g>
				<g>
					<g>
						<g>
							<path style="fill:#E8505B;" d="M461.568,343.554c0.144,0,0.26,0.508,0.26,1.135c0,0.627-0.117,1.135-0.26,1.135
								s-0.26-0.508-0.26-1.135C461.307,344.062,461.424,343.554,461.568,343.554z"/>
						</g>
					</g>
				</g>
			</g>
			<g>
				<g>
					<rect x="427.415" y="391.481" style="fill:#E0E0E0;" width="16.161" height="16.161"/>
				</g>
			</g>
			<g>
				<g>
					<rect x="446.639" y="391.481" style="fill:#E8505B;" width="25.342" height="16.161"/>
				</g>
			</g>
			<g>
				<g>
					<rect x="419.736" y="353.337" style="fill:#E0E0E0;" width="15.462" height="15.462"/>
				</g>
			</g>
			<g>
				<g>
					<rect x="438.127" y="353.337" style="fill:#E0E0E0;" width="15.462" height="15.462"/>
				</g>
			</g>
			<g>
				<g>
					<rect x="456.519" y="353.337" style="fill:#E0E0E0;" width="15.462" height="15.462"/>
				</g>
			</g>
			<g>
				<g>
					<rect x="327.587" y="372.409" style="fill:#E0E0E0;" width="15.462" height="15.462"/>
				</g>
			</g>
			<g>
				<g>
					<rect x="345.979" y="372.409" style="fill:#E0E0E0;" width="15.462" height="15.462"/>
				</g>
			</g>
			<g>
				<g>
					<rect x="364.371" y="372.409" style="fill:#E0E0E0;" width="15.462" height="15.462"/>
				</g>
			</g>
			<g>
				<g>
					<rect x="382.763" y="372.409" style="fill:#E0E0E0;" width="15.462" height="15.462"/>
				</g>
			</g>
			<g>
				<g>
					<rect x="401.155" y="372.409" style="fill:#E0E0E0;" width="15.462" height="15.462"/>
				</g>
			</g>
			<g>
				<g>
					<rect x="419.736" y="372.409" style="fill:#E0E0E0;" width="15.462" height="15.462"/>
				</g>
			</g>
			<g>
				<g>
					<rect x="438.127" y="372.409" style="fill:#E0E0E0;" width="15.462" height="15.462"/>
				</g>
			</g>
			<g>
				<g>
					<rect x="456.519" y="372.409" style="fill:#E0E0E0;" width="15.462" height="15.462"/>
				</g>
			</g>
		</g>
		<g>
			<g>
				<path style="fill:#E8505B;" d="M396.845,317.671c-0.007,1.46-1.207,2.639-2.682,2.632c-1.475-0.007-2.666-1.197-2.66-2.658
					c0.007-1.46,1.207-2.64,2.682-2.632C395.66,315.02,396.851,316.21,396.845,317.671z"/>
			</g>
			<g>
				<path style="fill:#E8505B;" d="M405.122,317.709c-0.006,1.46-1.207,2.639-2.682,2.632c-1.475-0.006-2.666-1.196-2.66-2.658
					c0.006-1.46,1.207-2.639,2.682-2.633C403.937,315.058,405.128,316.247,405.122,317.709z"/>
			</g>
			<g>
				<path style="fill:#E8505B;" d="M413.398,317.747c-0.006,1.46-1.207,2.64-2.682,2.632c-1.475-0.006-2.666-1.196-2.66-2.658
					c0.007-1.46,1.207-2.639,2.682-2.633S413.405,316.285,413.398,317.747z"/>
			</g>
		</g>
	</g>
</g>
</svg>
